G04 (created by PCBNEW (2013-07-07 BZR 4022)-stable) date 22/04/2014 18:46:14*
%MOIN*%
G04 Gerber Fmt 3.4, Leading zero omitted, Abs format*
%FSLAX34Y34*%
G01*
G70*
G90*
G04 APERTURE LIST*
%ADD10C,0.00590551*%
%ADD11R,0.0829X0.028*%
%ADD12R,0.0907402X0.035622*%
%ADD13R,0.047X0.067*%
%ADD14R,0.067X0.047*%
%ADD15R,0.0907X0.2285*%
%ADD16C,0.0907402*%
%ADD17R,0.072X0.072*%
%ADD18C,0.072*%
%ADD19R,0.0789291X0.149795*%
%ADD20C,0.172*%
G04 APERTURE END LIST*
G54D10*
X72755Y-45511D02*
X84055Y-45511D01*
X72755Y-60472D02*
X72755Y-45511D01*
X84055Y-60472D02*
X72755Y-60472D01*
X84055Y-45511D02*
X84055Y-60472D01*
G54D11*
X80207Y-56554D03*
X80207Y-56814D03*
X80207Y-57064D03*
X80207Y-57324D03*
X80207Y-57584D03*
X80207Y-57834D03*
X80207Y-58094D03*
X80207Y-58344D03*
X80207Y-58604D03*
X80207Y-58864D03*
X77407Y-58874D03*
X77407Y-58604D03*
X77407Y-58344D03*
X77407Y-58094D03*
X77407Y-57834D03*
X77407Y-57584D03*
X77407Y-57324D03*
X77407Y-57064D03*
X77407Y-56814D03*
X77407Y-56554D03*
G54D12*
X80251Y-53944D03*
X80251Y-52944D03*
X80251Y-53444D03*
X80251Y-52444D03*
X80251Y-51944D03*
X80251Y-51444D03*
X80251Y-54444D03*
X80251Y-50944D03*
X78362Y-50944D03*
X78362Y-54444D03*
X78362Y-51444D03*
X78362Y-51944D03*
X78362Y-52444D03*
X78362Y-53444D03*
X78362Y-52944D03*
X78362Y-53944D03*
G54D13*
X78682Y-49944D03*
X79432Y-49944D03*
G54D14*
X76307Y-54569D03*
X76307Y-53819D03*
X76307Y-53069D03*
X76307Y-52319D03*
X81557Y-50569D03*
X81557Y-51319D03*
X81557Y-52819D03*
X81557Y-52069D03*
G54D13*
X75182Y-56444D03*
X75932Y-56444D03*
G54D14*
X81220Y-55136D03*
X81220Y-55886D03*
G54D13*
X81932Y-59194D03*
X81182Y-59194D03*
X73682Y-55444D03*
X74432Y-55444D03*
G54D14*
X77244Y-55176D03*
X77244Y-55926D03*
G54D13*
X73682Y-56444D03*
X74432Y-56444D03*
G54D15*
X82807Y-53844D03*
X82807Y-57544D03*
G54D16*
X82807Y-54694D03*
X82807Y-56694D03*
G54D17*
X74807Y-51444D03*
G54D18*
X74807Y-50444D03*
X74807Y-49444D03*
X74807Y-48444D03*
X74807Y-47444D03*
G54D17*
X73607Y-51444D03*
G54D18*
X73607Y-50444D03*
X73607Y-49444D03*
X73607Y-48444D03*
X73607Y-47444D03*
G54D17*
X77791Y-47677D03*
G54D18*
X78791Y-47677D03*
X79791Y-47677D03*
X80791Y-47677D03*
G54D19*
X80629Y-46299D03*
X77952Y-46299D03*
X78818Y-46299D03*
X79763Y-46299D03*
G54D20*
X73858Y-59370D03*
G54D17*
X78307Y-55444D03*
G54D18*
X79307Y-55444D03*
X80307Y-55444D03*
M02*
