G04 (created by PCBNEW (2013-07-07 BZR 4022)-stable) date 22/04/2014 18:46:14*
%MOIN*%
G04 Gerber Fmt 3.4, Leading zero omitted, Abs format*
%FSLAX34Y34*%
G01*
G70*
G90*
G04 APERTURE LIST*
%ADD10C,0.00590551*%
%ADD11R,0.0197X0.0906*%
%ADD12R,0.0787X0.0984*%
%ADD13R,0.0709X0.016*%
%ADD14R,0.035X0.055*%
%ADD15R,0.055X0.035*%
%ADD16C,0.0787402*%
%ADD17R,0.06X0.06*%
%ADD18C,0.06*%
%ADD19R,0.0669291X0.137795*%
%ADD20C,0.16*%
%ADD21C,0.024*%
%ADD22C,0.006*%
%ADD23C,0.01*%
G04 APERTURE END LIST*
G54D10*
X72755Y-45511D02*
X84055Y-45511D01*
X72755Y-60472D02*
X72755Y-45511D01*
X84055Y-60472D02*
X72755Y-60472D01*
X84055Y-45511D02*
X84055Y-60472D01*
G54D11*
X78070Y-57342D03*
X78385Y-57342D03*
X78700Y-57342D03*
X79015Y-57342D03*
X79330Y-57342D03*
G54D12*
X76948Y-57381D03*
X76948Y-59546D03*
X80452Y-57381D03*
X80452Y-59546D03*
G54D13*
X80457Y-54094D03*
X80457Y-53844D03*
X80457Y-53584D03*
X80457Y-53324D03*
X80457Y-53074D03*
X80457Y-52814D03*
X80457Y-52554D03*
X80457Y-52304D03*
X80457Y-52044D03*
X80457Y-51794D03*
X80457Y-51534D03*
X80457Y-51274D03*
X80457Y-51024D03*
X80457Y-50764D03*
X77657Y-50764D03*
X77657Y-51024D03*
X77657Y-51264D03*
X77657Y-51534D03*
X77657Y-51794D03*
X77657Y-52044D03*
X77657Y-52304D03*
X77657Y-52554D03*
X77657Y-52814D03*
X77657Y-53074D03*
X77657Y-53324D03*
X77657Y-53584D03*
X77657Y-53844D03*
X77657Y-54094D03*
G54D14*
X75932Y-55444D03*
X75182Y-55444D03*
G54D15*
X76057Y-52819D03*
X76057Y-52069D03*
G54D14*
X73682Y-55444D03*
X74432Y-55444D03*
X73682Y-56444D03*
X74432Y-56444D03*
X75932Y-56444D03*
X75182Y-56444D03*
X81682Y-59194D03*
X82432Y-59194D03*
X82182Y-57944D03*
X81432Y-57944D03*
X82182Y-56694D03*
X81432Y-56694D03*
X81682Y-53944D03*
X82432Y-53944D03*
G54D15*
X73807Y-54569D03*
X73807Y-53819D03*
X74807Y-54569D03*
X74807Y-53819D03*
G54D16*
X82807Y-54694D03*
X82807Y-56694D03*
G54D17*
X74807Y-51444D03*
G54D18*
X74807Y-50444D03*
X74807Y-49444D03*
X74807Y-48444D03*
X74807Y-47444D03*
G54D17*
X73607Y-51444D03*
G54D18*
X73607Y-50444D03*
X73607Y-49444D03*
X73607Y-48444D03*
X73607Y-47444D03*
G54D17*
X77791Y-47677D03*
G54D18*
X78791Y-47677D03*
X79791Y-47677D03*
X80791Y-47677D03*
G54D19*
X80433Y-46299D03*
X79291Y-46299D03*
X78149Y-46299D03*
X81574Y-46299D03*
X77007Y-46299D03*
G54D20*
X73858Y-59370D03*
G54D17*
X78307Y-55444D03*
G54D18*
X79307Y-55444D03*
X80307Y-55444D03*
G54D21*
X78083Y-49599D03*
X77001Y-49266D03*
X77704Y-49664D03*
X79604Y-51127D03*
X78250Y-56401D03*
X78290Y-56704D03*
X79160Y-52016D03*
X79147Y-52327D03*
X79657Y-52667D03*
X76725Y-55959D03*
X80568Y-50352D03*
X78960Y-52917D03*
X78721Y-56519D03*
X79638Y-57579D03*
X80568Y-49378D03*
X77534Y-54777D03*
X75557Y-54835D03*
X77999Y-54841D03*
G54D22*
X80457Y-51024D02*
X80012Y-51024D01*
X78586Y-49599D02*
X78083Y-49599D01*
X80012Y-51024D02*
X78586Y-49599D01*
X80457Y-50764D02*
X80012Y-50764D01*
X78513Y-49266D02*
X77001Y-49266D01*
X80012Y-50764D02*
X78513Y-49266D01*
X80457Y-51274D02*
X80012Y-51274D01*
X77906Y-49865D02*
X77704Y-49664D01*
X78641Y-49865D02*
X77906Y-49865D01*
X80012Y-51236D02*
X78641Y-49865D01*
X80012Y-51274D02*
X80012Y-51236D01*
X80457Y-51534D02*
X80012Y-51534D01*
X80012Y-51534D02*
X79604Y-51127D01*
X78700Y-57342D02*
X78700Y-56799D01*
X78302Y-56401D02*
X78700Y-56799D01*
X78250Y-56401D02*
X78302Y-56401D01*
X78250Y-56128D02*
X78250Y-56401D01*
X77896Y-55774D02*
X78250Y-56128D01*
X77896Y-55106D02*
X77896Y-55774D01*
X77950Y-55053D02*
X77896Y-55106D01*
X78111Y-55053D02*
X77950Y-55053D01*
X78343Y-54821D02*
X78111Y-55053D01*
X78343Y-51096D02*
X78343Y-54821D01*
X78011Y-50764D02*
X78343Y-51096D01*
X77657Y-50764D02*
X78011Y-50764D01*
X78385Y-57342D02*
X78385Y-57885D01*
X77657Y-51024D02*
X78101Y-51024D01*
X78385Y-57342D02*
X78385Y-56799D01*
X78290Y-56704D02*
X78385Y-56799D01*
X77933Y-57885D02*
X78385Y-57885D01*
X77772Y-57725D02*
X77933Y-57885D01*
X77772Y-55990D02*
X77772Y-57725D01*
X77656Y-55874D02*
X77772Y-55990D01*
X77656Y-54953D02*
X77656Y-55874D01*
X77772Y-54837D02*
X77656Y-54953D01*
X77772Y-54764D02*
X77772Y-54837D01*
X78223Y-54313D02*
X77772Y-54764D01*
X78223Y-51146D02*
X78223Y-54313D01*
X78101Y-51024D02*
X78223Y-51146D01*
X77348Y-49985D02*
X74807Y-47444D01*
X78139Y-49985D02*
X77348Y-49985D01*
X79948Y-51794D02*
X78139Y-49985D01*
X80457Y-51794D02*
X79948Y-51794D01*
X80457Y-52044D02*
X80012Y-52044D01*
X76468Y-50106D02*
X74807Y-48444D01*
X78089Y-50106D02*
X76468Y-50106D01*
X80012Y-52028D02*
X78089Y-50106D01*
X80012Y-52044D02*
X80012Y-52028D01*
X79216Y-53048D02*
X80012Y-53844D01*
X79216Y-52701D02*
X79216Y-53048D01*
X78878Y-52363D02*
X79216Y-52701D01*
X78878Y-51068D02*
X78878Y-52363D01*
X78036Y-50226D02*
X78878Y-51068D01*
X75588Y-50226D02*
X78036Y-50226D01*
X75588Y-50226D02*
X75588Y-50226D01*
X74807Y-49444D02*
X75588Y-50226D01*
X80457Y-53844D02*
X80012Y-53844D01*
X77657Y-51264D02*
X77212Y-51264D01*
X81682Y-53944D02*
X81416Y-53944D01*
X75559Y-50619D02*
X77212Y-50619D01*
X74904Y-49964D02*
X75559Y-50619D01*
X74585Y-49964D02*
X74904Y-49964D01*
X74281Y-49660D02*
X74585Y-49964D01*
X74281Y-47229D02*
X74281Y-49660D01*
X74584Y-46925D02*
X74281Y-47229D01*
X75558Y-46925D02*
X74584Y-46925D01*
X76309Y-47677D02*
X75558Y-46925D01*
X77791Y-47677D02*
X76309Y-47677D01*
X77212Y-50619D02*
X77212Y-51264D01*
X78307Y-55444D02*
X78307Y-55054D01*
X79169Y-54192D02*
X78307Y-55054D01*
X81074Y-54286D02*
X81416Y-53944D01*
X79264Y-54286D02*
X81074Y-54286D01*
X79169Y-54192D02*
X79264Y-54286D01*
X78495Y-53517D02*
X79169Y-54192D01*
X78495Y-51024D02*
X78495Y-53517D01*
X78065Y-50594D02*
X78495Y-51024D01*
X77236Y-50594D02*
X78065Y-50594D01*
X77212Y-50619D02*
X77236Y-50594D01*
X74432Y-55444D02*
X75182Y-55444D01*
X75182Y-56444D02*
X74432Y-56444D01*
X79485Y-56329D02*
X79015Y-56799D01*
X81651Y-56329D02*
X79485Y-56329D01*
X81916Y-56595D02*
X81651Y-56329D01*
X81916Y-56694D02*
X81916Y-56595D01*
X82182Y-56694D02*
X81916Y-56694D01*
X79015Y-57342D02*
X79015Y-56799D01*
X80694Y-59546D02*
X80936Y-59546D01*
X82182Y-57944D02*
X82182Y-59194D01*
X82432Y-59194D02*
X82182Y-59194D01*
X82182Y-59194D02*
X82166Y-59194D01*
X80694Y-59546D02*
X80573Y-59425D01*
X80452Y-59304D02*
X80452Y-57381D01*
X80573Y-59425D02*
X80452Y-59304D01*
X80573Y-59425D02*
X80452Y-59546D01*
X80452Y-59546D02*
X77432Y-59546D01*
X82166Y-59296D02*
X82166Y-59194D01*
X81882Y-59581D02*
X82166Y-59296D01*
X80971Y-59581D02*
X81882Y-59581D01*
X80936Y-59546D02*
X80971Y-59581D01*
X76948Y-59546D02*
X77190Y-59546D01*
X77190Y-59546D02*
X77432Y-59546D01*
X77190Y-58205D02*
X76948Y-57963D01*
X77190Y-59546D02*
X77190Y-58205D01*
X76948Y-57381D02*
X76948Y-57963D01*
X77657Y-52044D02*
X77212Y-52044D01*
X76057Y-52069D02*
X76422Y-52069D01*
X77187Y-52069D02*
X77212Y-52044D01*
X76422Y-52069D02*
X77187Y-52069D01*
X80457Y-52814D02*
X80012Y-52814D01*
X80012Y-52725D02*
X80012Y-52814D01*
X79303Y-52016D02*
X80012Y-52725D01*
X79160Y-52016D02*
X79303Y-52016D01*
X80457Y-53584D02*
X80012Y-53584D01*
X79438Y-52619D02*
X79147Y-52327D01*
X79438Y-53011D02*
X79438Y-52619D01*
X80012Y-53584D02*
X79438Y-53011D01*
X80012Y-53022D02*
X80012Y-53074D01*
X79657Y-52667D02*
X80012Y-53022D01*
X80457Y-53074D02*
X80012Y-53074D01*
X77657Y-52554D02*
X77212Y-52554D01*
X75932Y-55444D02*
X76725Y-55444D01*
X76725Y-53042D02*
X76725Y-55444D01*
X77212Y-52554D02*
X76725Y-53042D01*
X76725Y-55444D02*
X76725Y-55959D01*
X80433Y-46299D02*
X80433Y-47078D01*
X80781Y-50139D02*
X80568Y-50352D01*
X80781Y-49291D02*
X80781Y-50139D01*
X80397Y-48907D02*
X80781Y-49291D01*
X80397Y-47113D02*
X80397Y-48907D01*
X80433Y-47078D02*
X80397Y-47113D01*
X80457Y-54094D02*
X80901Y-54094D01*
X80457Y-54094D02*
X80012Y-54094D01*
X78960Y-53043D02*
X80012Y-54094D01*
X78960Y-52917D02*
X78960Y-53043D01*
X78721Y-55457D02*
X78721Y-56519D01*
X79546Y-54633D02*
X78721Y-55457D01*
X81590Y-54633D02*
X79546Y-54633D01*
X81947Y-54276D02*
X81590Y-54633D01*
X81947Y-53623D02*
X81947Y-54276D01*
X81903Y-53579D02*
X81947Y-53623D01*
X81416Y-53579D02*
X81903Y-53579D01*
X80901Y-54094D02*
X81416Y-53579D01*
X78618Y-52575D02*
X78960Y-52917D01*
X78618Y-50978D02*
X78618Y-52575D01*
X78106Y-50466D02*
X78618Y-50978D01*
X75576Y-50466D02*
X78106Y-50466D01*
X74948Y-49838D02*
X75576Y-50466D01*
X74633Y-49838D02*
X74948Y-49838D01*
X74408Y-49614D02*
X74633Y-49838D01*
X74408Y-47277D02*
X74408Y-49614D01*
X74638Y-47047D02*
X74408Y-47277D01*
X75145Y-47047D02*
X74638Y-47047D01*
X76165Y-48067D02*
X75145Y-47047D01*
X78401Y-48067D02*
X76165Y-48067D01*
X78791Y-47677D02*
X78401Y-48067D01*
X75932Y-56444D02*
X76197Y-56444D01*
X77657Y-52814D02*
X77212Y-52814D01*
X76197Y-56444D02*
X77212Y-56444D01*
X77212Y-52814D02*
X77212Y-56444D01*
X79638Y-57782D02*
X79638Y-57579D01*
X79281Y-58140D02*
X79638Y-57782D01*
X77830Y-58140D02*
X79281Y-58140D01*
X77439Y-57749D02*
X77830Y-58140D01*
X77439Y-56672D02*
X77439Y-57749D01*
X77212Y-56444D02*
X77439Y-56672D01*
X79291Y-48101D02*
X80568Y-49378D01*
X79291Y-46299D02*
X79291Y-48101D01*
X81682Y-59194D02*
X81682Y-58829D01*
X81432Y-57944D02*
X81432Y-57579D01*
X81432Y-58579D02*
X81682Y-58829D01*
X81432Y-57944D02*
X81432Y-58579D01*
X78101Y-51534D02*
X78101Y-52304D01*
X77657Y-51534D02*
X78101Y-51534D01*
X77657Y-52304D02*
X77212Y-52304D01*
X77657Y-52304D02*
X78071Y-52304D01*
X78071Y-52304D02*
X78101Y-52304D01*
X78101Y-52304D02*
X78101Y-53324D01*
X77879Y-53584D02*
X77879Y-53324D01*
X77657Y-53584D02*
X77879Y-53584D01*
X77879Y-53584D02*
X78101Y-53584D01*
X77657Y-53324D02*
X77879Y-53324D01*
X77879Y-53324D02*
X78101Y-53324D01*
X73707Y-54085D02*
X73807Y-54085D01*
X73416Y-54375D02*
X73707Y-54085D01*
X73416Y-58928D02*
X73416Y-54375D01*
X73858Y-59370D02*
X73416Y-58928D01*
X77007Y-46299D02*
X77007Y-47078D01*
X73736Y-47574D02*
X73607Y-47444D01*
X73807Y-53819D02*
X73807Y-53952D01*
X73807Y-53952D02*
X73807Y-54085D01*
X74309Y-53952D02*
X74441Y-53819D01*
X73807Y-53952D02*
X74309Y-53952D01*
X74807Y-53819D02*
X74441Y-53819D01*
X75433Y-52928D02*
X74807Y-53554D01*
X75433Y-52344D02*
X75433Y-52928D01*
X77172Y-52344D02*
X75433Y-52344D01*
X77212Y-52304D02*
X77172Y-52344D01*
X74113Y-47951D02*
X73736Y-47574D01*
X74113Y-50304D02*
X74113Y-47951D01*
X74796Y-50987D02*
X74113Y-50304D01*
X75094Y-50987D02*
X74796Y-50987D01*
X75433Y-51326D02*
X75094Y-50987D01*
X75433Y-52344D02*
X75433Y-51326D01*
X74807Y-53819D02*
X74807Y-53554D01*
X74524Y-46786D02*
X73736Y-47574D01*
X75833Y-46786D02*
X74524Y-46786D01*
X76015Y-46968D02*
X75833Y-46786D01*
X76127Y-46968D02*
X76015Y-46968D01*
X76237Y-47078D02*
X76127Y-46968D01*
X77007Y-47078D02*
X76237Y-47078D01*
X79330Y-57342D02*
X79330Y-57885D01*
X81432Y-56777D02*
X81432Y-57060D01*
X79353Y-56777D02*
X79330Y-56799D01*
X81432Y-56777D02*
X79353Y-56777D01*
X79330Y-57342D02*
X79330Y-56799D01*
X81432Y-56736D02*
X81432Y-56777D01*
X78101Y-54242D02*
X77550Y-54793D01*
X78101Y-53584D02*
X78101Y-54242D01*
X77550Y-54793D02*
X77534Y-54777D01*
X79197Y-58018D02*
X79330Y-57885D01*
X77895Y-58018D02*
X79197Y-58018D01*
X77595Y-57719D02*
X77895Y-58018D01*
X77595Y-55983D02*
X77595Y-57719D01*
X77536Y-55924D02*
X77595Y-55983D01*
X77536Y-54808D02*
X77536Y-55924D01*
X77550Y-54793D02*
X77536Y-54808D01*
X81432Y-56736D02*
X81432Y-56694D01*
X80901Y-47787D02*
X80901Y-52554D01*
X80791Y-47677D02*
X80901Y-47787D01*
X80457Y-52554D02*
X80901Y-52554D01*
X81407Y-52554D02*
X80901Y-52554D01*
X82432Y-53579D02*
X81407Y-52554D01*
X82432Y-53944D02*
X82432Y-53579D01*
X82432Y-53944D02*
X82432Y-54310D01*
X82309Y-54432D02*
X82432Y-54310D01*
X82309Y-55383D02*
X82309Y-54432D01*
X83302Y-56375D02*
X82309Y-55383D01*
X83302Y-56909D02*
X83302Y-56375D01*
X83021Y-57189D02*
X83302Y-56909D01*
X81432Y-57189D02*
X83021Y-57189D01*
X81432Y-57060D02*
X81432Y-57189D01*
X81432Y-57189D02*
X81432Y-57579D01*
X73682Y-56444D02*
X73682Y-55444D01*
X73807Y-54569D02*
X73807Y-54702D01*
X74309Y-54702D02*
X74441Y-54569D01*
X73807Y-54702D02*
X74309Y-54702D01*
X73807Y-54954D02*
X73682Y-55079D01*
X73807Y-54702D02*
X73807Y-54954D01*
X73682Y-55444D02*
X73682Y-55079D01*
X74624Y-54569D02*
X74441Y-54569D01*
X76057Y-52819D02*
X76057Y-53085D01*
X74624Y-54569D02*
X74807Y-54569D01*
X74807Y-54569D02*
X75557Y-54569D01*
X75557Y-53585D02*
X75557Y-54569D01*
X76057Y-53085D02*
X75557Y-53585D01*
X75557Y-54569D02*
X75557Y-54835D01*
X78070Y-57342D02*
X78070Y-56799D01*
X77896Y-56625D02*
X78070Y-56799D01*
X77896Y-55944D02*
X77896Y-56625D01*
X77776Y-55824D02*
X77896Y-55944D01*
X77776Y-55033D02*
X77776Y-55824D01*
X77968Y-54841D02*
X77776Y-55033D01*
X77999Y-54841D02*
X77968Y-54841D01*
X81818Y-53324D02*
X80457Y-53324D01*
X82067Y-53574D02*
X81818Y-53324D01*
X82067Y-54325D02*
X82067Y-53574D01*
X81622Y-54770D02*
X82067Y-54325D01*
X79981Y-54770D02*
X81622Y-54770D01*
X79307Y-55444D02*
X79981Y-54770D01*
G54D10*
G36*
X77278Y-47238D02*
X77241Y-47327D01*
X77241Y-47397D01*
X76957Y-47397D01*
X76957Y-47175D01*
X76957Y-46349D01*
X76485Y-46349D01*
X76423Y-46411D01*
X76423Y-46938D01*
X76423Y-47038D01*
X76461Y-47129D01*
X76531Y-47200D01*
X76623Y-47238D01*
X76895Y-47238D01*
X76957Y-47175D01*
X76957Y-47397D01*
X76425Y-47397D01*
X75756Y-46727D01*
X75665Y-46667D01*
X75558Y-46645D01*
X74584Y-46645D01*
X74477Y-46667D01*
X74447Y-46687D01*
X74386Y-46727D01*
X74083Y-47031D01*
X74022Y-47122D01*
X74019Y-47137D01*
X73992Y-47129D01*
X73922Y-47200D01*
X73922Y-47058D01*
X73894Y-46963D01*
X73688Y-46890D01*
X73470Y-46901D01*
X73319Y-46963D01*
X73291Y-47058D01*
X73607Y-47374D01*
X73922Y-47058D01*
X73922Y-47200D01*
X73677Y-47444D01*
X73683Y-47450D01*
X73612Y-47521D01*
X73607Y-47515D01*
X73536Y-47586D01*
X73536Y-47444D01*
X73221Y-47129D01*
X73125Y-47157D01*
X73052Y-47363D01*
X73063Y-47581D01*
X73125Y-47732D01*
X73221Y-47760D01*
X73536Y-47444D01*
X73536Y-47586D01*
X73291Y-47830D01*
X73319Y-47926D01*
X73374Y-47945D01*
X73295Y-47978D01*
X73141Y-48132D01*
X73057Y-48335D01*
X73056Y-48553D01*
X73140Y-48756D01*
X73295Y-48910D01*
X73376Y-48944D01*
X73295Y-48978D01*
X73141Y-49132D01*
X73057Y-49335D01*
X73056Y-49553D01*
X73140Y-49756D01*
X73295Y-49910D01*
X73376Y-49944D01*
X73295Y-49978D01*
X73141Y-50132D01*
X73057Y-50335D01*
X73056Y-50553D01*
X73140Y-50756D01*
X73279Y-50894D01*
X73257Y-50894D01*
X73165Y-50932D01*
X73095Y-51003D01*
X73057Y-51094D01*
X73057Y-51194D01*
X73057Y-51794D01*
X73095Y-51886D01*
X73165Y-51956D01*
X73257Y-51994D01*
X73356Y-51994D01*
X73956Y-51994D01*
X74048Y-51956D01*
X74118Y-51886D01*
X74157Y-51794D01*
X74157Y-51695D01*
X74157Y-51095D01*
X74119Y-51003D01*
X74048Y-50933D01*
X73957Y-50894D01*
X73934Y-50894D01*
X74073Y-50756D01*
X74156Y-50554D01*
X74157Y-50335D01*
X74073Y-50133D01*
X73919Y-49978D01*
X73837Y-49944D01*
X73918Y-49911D01*
X74038Y-49791D01*
X74083Y-49858D01*
X74349Y-50124D01*
X74341Y-50132D01*
X74257Y-50335D01*
X74256Y-50553D01*
X74340Y-50756D01*
X74479Y-50894D01*
X74457Y-50894D01*
X74365Y-50932D01*
X74295Y-51003D01*
X74257Y-51094D01*
X74257Y-51194D01*
X74257Y-51794D01*
X74295Y-51886D01*
X74365Y-51956D01*
X74457Y-51994D01*
X74556Y-51994D01*
X75156Y-51994D01*
X75248Y-51956D01*
X75318Y-51886D01*
X75357Y-51794D01*
X75357Y-51695D01*
X75357Y-51095D01*
X75319Y-51003D01*
X75248Y-50933D01*
X75157Y-50894D01*
X75134Y-50894D01*
X75273Y-50756D01*
X75281Y-50737D01*
X75361Y-50817D01*
X75361Y-50817D01*
X75422Y-50857D01*
X75452Y-50877D01*
X75452Y-50877D01*
X75559Y-50899D01*
X76932Y-50899D01*
X76932Y-51264D01*
X76953Y-51372D01*
X77014Y-51462D01*
X77105Y-51523D01*
X77133Y-51529D01*
X77134Y-51529D01*
X77090Y-51573D01*
X77072Y-51617D01*
X77052Y-51637D01*
X77052Y-51664D01*
X77052Y-51664D01*
X77052Y-51664D01*
X77052Y-51764D01*
X77052Y-51789D01*
X76559Y-51789D01*
X76544Y-51753D01*
X76473Y-51683D01*
X76382Y-51644D01*
X76282Y-51644D01*
X75732Y-51644D01*
X75640Y-51682D01*
X75570Y-51753D01*
X75532Y-51844D01*
X75532Y-51944D01*
X75532Y-52294D01*
X75570Y-52386D01*
X75628Y-52444D01*
X75570Y-52503D01*
X75532Y-52594D01*
X75532Y-52694D01*
X75532Y-53044D01*
X75570Y-53136D01*
X75589Y-53156D01*
X75359Y-53387D01*
X75298Y-53477D01*
X75293Y-53502D01*
X75223Y-53433D01*
X75132Y-53394D01*
X75032Y-53394D01*
X74919Y-53394D01*
X74857Y-53457D01*
X74857Y-53769D01*
X74864Y-53769D01*
X74864Y-53869D01*
X74857Y-53869D01*
X74857Y-53877D01*
X74757Y-53877D01*
X74757Y-53869D01*
X74757Y-53769D01*
X74757Y-53457D01*
X74694Y-53394D01*
X74581Y-53394D01*
X74482Y-53394D01*
X74390Y-53433D01*
X74320Y-53503D01*
X74307Y-53534D01*
X74294Y-53503D01*
X74223Y-53433D01*
X74132Y-53394D01*
X74032Y-53394D01*
X73919Y-53394D01*
X73857Y-53457D01*
X73857Y-53769D01*
X74269Y-53769D01*
X74307Y-53732D01*
X74344Y-53769D01*
X74757Y-53769D01*
X74757Y-53869D01*
X74344Y-53869D01*
X74307Y-53907D01*
X74269Y-53869D01*
X73857Y-53869D01*
X73857Y-53877D01*
X73757Y-53877D01*
X73757Y-53869D01*
X73757Y-53769D01*
X73757Y-53457D01*
X73694Y-53394D01*
X73581Y-53394D01*
X73482Y-53394D01*
X73390Y-53433D01*
X73320Y-53503D01*
X73282Y-53595D01*
X73282Y-53707D01*
X73344Y-53769D01*
X73757Y-53769D01*
X73757Y-53869D01*
X73344Y-53869D01*
X73282Y-53932D01*
X73282Y-54044D01*
X73320Y-54136D01*
X73378Y-54194D01*
X73320Y-54253D01*
X73282Y-54344D01*
X73282Y-54444D01*
X73282Y-54794D01*
X73320Y-54886D01*
X73383Y-54950D01*
X73365Y-54957D01*
X73295Y-55028D01*
X73257Y-55119D01*
X73257Y-55219D01*
X73257Y-55769D01*
X73295Y-55861D01*
X73365Y-55931D01*
X73397Y-55944D01*
X73365Y-55957D01*
X73295Y-56028D01*
X73257Y-56119D01*
X73257Y-56219D01*
X73257Y-56769D01*
X73295Y-56861D01*
X73365Y-56931D01*
X73457Y-56969D01*
X73556Y-56969D01*
X73906Y-56969D01*
X73998Y-56931D01*
X74057Y-56873D01*
X74115Y-56931D01*
X74207Y-56969D01*
X74306Y-56969D01*
X74656Y-56969D01*
X74748Y-56931D01*
X74807Y-56873D01*
X74865Y-56931D01*
X74957Y-56969D01*
X75056Y-56969D01*
X75406Y-56969D01*
X75498Y-56931D01*
X75557Y-56873D01*
X75615Y-56931D01*
X75707Y-56969D01*
X75806Y-56969D01*
X76156Y-56969D01*
X76248Y-56931D01*
X76305Y-56875D01*
X76305Y-56939D01*
X76305Y-57923D01*
X76343Y-58015D01*
X76413Y-58085D01*
X76505Y-58123D01*
X76604Y-58123D01*
X76725Y-58123D01*
X76725Y-58123D01*
X76750Y-58161D01*
X76910Y-58321D01*
X76910Y-58804D01*
X76505Y-58804D01*
X76413Y-58842D01*
X76343Y-58912D01*
X76305Y-59004D01*
X76305Y-59104D01*
X76305Y-60088D01*
X76343Y-60180D01*
X76355Y-60192D01*
X74909Y-60192D01*
X74909Y-59571D01*
X74906Y-59153D01*
X74752Y-58781D01*
X74605Y-58693D01*
X74534Y-58764D01*
X74534Y-58622D01*
X74446Y-58475D01*
X74059Y-58318D01*
X73641Y-58321D01*
X73270Y-58475D01*
X73181Y-58622D01*
X73858Y-59299D01*
X74534Y-58622D01*
X74534Y-58764D01*
X73928Y-59370D01*
X74605Y-60046D01*
X74752Y-59958D01*
X74909Y-59571D01*
X74909Y-60192D01*
X74489Y-60192D01*
X74534Y-60117D01*
X73858Y-59440D01*
X73181Y-60117D01*
X73227Y-60192D01*
X73035Y-60192D01*
X73035Y-60001D01*
X73110Y-60046D01*
X73787Y-59370D01*
X73110Y-58693D01*
X73035Y-58738D01*
X73035Y-45791D01*
X76423Y-45791D01*
X76423Y-46186D01*
X76485Y-46249D01*
X76957Y-46249D01*
X76957Y-46241D01*
X77057Y-46241D01*
X77057Y-46249D01*
X77065Y-46249D01*
X77065Y-46349D01*
X77057Y-46349D01*
X77057Y-47175D01*
X77120Y-47238D01*
X77278Y-47238D01*
X77278Y-47238D01*
G37*
G54D23*
X77278Y-47238D02*
X77241Y-47327D01*
X77241Y-47397D01*
X76957Y-47397D01*
X76957Y-47175D01*
X76957Y-46349D01*
X76485Y-46349D01*
X76423Y-46411D01*
X76423Y-46938D01*
X76423Y-47038D01*
X76461Y-47129D01*
X76531Y-47200D01*
X76623Y-47238D01*
X76895Y-47238D01*
X76957Y-47175D01*
X76957Y-47397D01*
X76425Y-47397D01*
X75756Y-46727D01*
X75665Y-46667D01*
X75558Y-46645D01*
X74584Y-46645D01*
X74477Y-46667D01*
X74447Y-46687D01*
X74386Y-46727D01*
X74083Y-47031D01*
X74022Y-47122D01*
X74019Y-47137D01*
X73992Y-47129D01*
X73922Y-47200D01*
X73922Y-47058D01*
X73894Y-46963D01*
X73688Y-46890D01*
X73470Y-46901D01*
X73319Y-46963D01*
X73291Y-47058D01*
X73607Y-47374D01*
X73922Y-47058D01*
X73922Y-47200D01*
X73677Y-47444D01*
X73683Y-47450D01*
X73612Y-47521D01*
X73607Y-47515D01*
X73536Y-47586D01*
X73536Y-47444D01*
X73221Y-47129D01*
X73125Y-47157D01*
X73052Y-47363D01*
X73063Y-47581D01*
X73125Y-47732D01*
X73221Y-47760D01*
X73536Y-47444D01*
X73536Y-47586D01*
X73291Y-47830D01*
X73319Y-47926D01*
X73374Y-47945D01*
X73295Y-47978D01*
X73141Y-48132D01*
X73057Y-48335D01*
X73056Y-48553D01*
X73140Y-48756D01*
X73295Y-48910D01*
X73376Y-48944D01*
X73295Y-48978D01*
X73141Y-49132D01*
X73057Y-49335D01*
X73056Y-49553D01*
X73140Y-49756D01*
X73295Y-49910D01*
X73376Y-49944D01*
X73295Y-49978D01*
X73141Y-50132D01*
X73057Y-50335D01*
X73056Y-50553D01*
X73140Y-50756D01*
X73279Y-50894D01*
X73257Y-50894D01*
X73165Y-50932D01*
X73095Y-51003D01*
X73057Y-51094D01*
X73057Y-51194D01*
X73057Y-51794D01*
X73095Y-51886D01*
X73165Y-51956D01*
X73257Y-51994D01*
X73356Y-51994D01*
X73956Y-51994D01*
X74048Y-51956D01*
X74118Y-51886D01*
X74157Y-51794D01*
X74157Y-51695D01*
X74157Y-51095D01*
X74119Y-51003D01*
X74048Y-50933D01*
X73957Y-50894D01*
X73934Y-50894D01*
X74073Y-50756D01*
X74156Y-50554D01*
X74157Y-50335D01*
X74073Y-50133D01*
X73919Y-49978D01*
X73837Y-49944D01*
X73918Y-49911D01*
X74038Y-49791D01*
X74083Y-49858D01*
X74349Y-50124D01*
X74341Y-50132D01*
X74257Y-50335D01*
X74256Y-50553D01*
X74340Y-50756D01*
X74479Y-50894D01*
X74457Y-50894D01*
X74365Y-50932D01*
X74295Y-51003D01*
X74257Y-51094D01*
X74257Y-51194D01*
X74257Y-51794D01*
X74295Y-51886D01*
X74365Y-51956D01*
X74457Y-51994D01*
X74556Y-51994D01*
X75156Y-51994D01*
X75248Y-51956D01*
X75318Y-51886D01*
X75357Y-51794D01*
X75357Y-51695D01*
X75357Y-51095D01*
X75319Y-51003D01*
X75248Y-50933D01*
X75157Y-50894D01*
X75134Y-50894D01*
X75273Y-50756D01*
X75281Y-50737D01*
X75361Y-50817D01*
X75361Y-50817D01*
X75422Y-50857D01*
X75452Y-50877D01*
X75452Y-50877D01*
X75559Y-50899D01*
X76932Y-50899D01*
X76932Y-51264D01*
X76953Y-51372D01*
X77014Y-51462D01*
X77105Y-51523D01*
X77133Y-51529D01*
X77134Y-51529D01*
X77090Y-51573D01*
X77072Y-51617D01*
X77052Y-51637D01*
X77052Y-51664D01*
X77052Y-51664D01*
X77052Y-51664D01*
X77052Y-51764D01*
X77052Y-51789D01*
X76559Y-51789D01*
X76544Y-51753D01*
X76473Y-51683D01*
X76382Y-51644D01*
X76282Y-51644D01*
X75732Y-51644D01*
X75640Y-51682D01*
X75570Y-51753D01*
X75532Y-51844D01*
X75532Y-51944D01*
X75532Y-52294D01*
X75570Y-52386D01*
X75628Y-52444D01*
X75570Y-52503D01*
X75532Y-52594D01*
X75532Y-52694D01*
X75532Y-53044D01*
X75570Y-53136D01*
X75589Y-53156D01*
X75359Y-53387D01*
X75298Y-53477D01*
X75293Y-53502D01*
X75223Y-53433D01*
X75132Y-53394D01*
X75032Y-53394D01*
X74919Y-53394D01*
X74857Y-53457D01*
X74857Y-53769D01*
X74864Y-53769D01*
X74864Y-53869D01*
X74857Y-53869D01*
X74857Y-53877D01*
X74757Y-53877D01*
X74757Y-53869D01*
X74757Y-53769D01*
X74757Y-53457D01*
X74694Y-53394D01*
X74581Y-53394D01*
X74482Y-53394D01*
X74390Y-53433D01*
X74320Y-53503D01*
X74307Y-53534D01*
X74294Y-53503D01*
X74223Y-53433D01*
X74132Y-53394D01*
X74032Y-53394D01*
X73919Y-53394D01*
X73857Y-53457D01*
X73857Y-53769D01*
X74269Y-53769D01*
X74307Y-53732D01*
X74344Y-53769D01*
X74757Y-53769D01*
X74757Y-53869D01*
X74344Y-53869D01*
X74307Y-53907D01*
X74269Y-53869D01*
X73857Y-53869D01*
X73857Y-53877D01*
X73757Y-53877D01*
X73757Y-53869D01*
X73757Y-53769D01*
X73757Y-53457D01*
X73694Y-53394D01*
X73581Y-53394D01*
X73482Y-53394D01*
X73390Y-53433D01*
X73320Y-53503D01*
X73282Y-53595D01*
X73282Y-53707D01*
X73344Y-53769D01*
X73757Y-53769D01*
X73757Y-53869D01*
X73344Y-53869D01*
X73282Y-53932D01*
X73282Y-54044D01*
X73320Y-54136D01*
X73378Y-54194D01*
X73320Y-54253D01*
X73282Y-54344D01*
X73282Y-54444D01*
X73282Y-54794D01*
X73320Y-54886D01*
X73383Y-54950D01*
X73365Y-54957D01*
X73295Y-55028D01*
X73257Y-55119D01*
X73257Y-55219D01*
X73257Y-55769D01*
X73295Y-55861D01*
X73365Y-55931D01*
X73397Y-55944D01*
X73365Y-55957D01*
X73295Y-56028D01*
X73257Y-56119D01*
X73257Y-56219D01*
X73257Y-56769D01*
X73295Y-56861D01*
X73365Y-56931D01*
X73457Y-56969D01*
X73556Y-56969D01*
X73906Y-56969D01*
X73998Y-56931D01*
X74057Y-56873D01*
X74115Y-56931D01*
X74207Y-56969D01*
X74306Y-56969D01*
X74656Y-56969D01*
X74748Y-56931D01*
X74807Y-56873D01*
X74865Y-56931D01*
X74957Y-56969D01*
X75056Y-56969D01*
X75406Y-56969D01*
X75498Y-56931D01*
X75557Y-56873D01*
X75615Y-56931D01*
X75707Y-56969D01*
X75806Y-56969D01*
X76156Y-56969D01*
X76248Y-56931D01*
X76305Y-56875D01*
X76305Y-56939D01*
X76305Y-57923D01*
X76343Y-58015D01*
X76413Y-58085D01*
X76505Y-58123D01*
X76604Y-58123D01*
X76725Y-58123D01*
X76725Y-58123D01*
X76750Y-58161D01*
X76910Y-58321D01*
X76910Y-58804D01*
X76505Y-58804D01*
X76413Y-58842D01*
X76343Y-58912D01*
X76305Y-59004D01*
X76305Y-59104D01*
X76305Y-60088D01*
X76343Y-60180D01*
X76355Y-60192D01*
X74909Y-60192D01*
X74909Y-59571D01*
X74906Y-59153D01*
X74752Y-58781D01*
X74605Y-58693D01*
X74534Y-58764D01*
X74534Y-58622D01*
X74446Y-58475D01*
X74059Y-58318D01*
X73641Y-58321D01*
X73270Y-58475D01*
X73181Y-58622D01*
X73858Y-59299D01*
X74534Y-58622D01*
X74534Y-58764D01*
X73928Y-59370D01*
X74605Y-60046D01*
X74752Y-59958D01*
X74909Y-59571D01*
X74909Y-60192D01*
X74489Y-60192D01*
X74534Y-60117D01*
X73858Y-59440D01*
X73181Y-60117D01*
X73227Y-60192D01*
X73035Y-60192D01*
X73035Y-60001D01*
X73110Y-60046D01*
X73787Y-59370D01*
X73110Y-58693D01*
X73035Y-58738D01*
X73035Y-45791D01*
X76423Y-45791D01*
X76423Y-46186D01*
X76485Y-46249D01*
X76957Y-46249D01*
X76957Y-46241D01*
X77057Y-46241D01*
X77057Y-46249D01*
X77065Y-46249D01*
X77065Y-46349D01*
X77057Y-46349D01*
X77057Y-47175D01*
X77120Y-47238D01*
X77278Y-47238D01*
G54D10*
G36*
X83775Y-60192D02*
X81045Y-60192D01*
X81058Y-60180D01*
X81096Y-60088D01*
X81096Y-59989D01*
X81096Y-59861D01*
X81882Y-59861D01*
X81989Y-59840D01*
X81989Y-59840D01*
X82080Y-59779D01*
X82159Y-59700D01*
X82207Y-59719D01*
X82306Y-59719D01*
X82656Y-59719D01*
X82748Y-59681D01*
X82818Y-59611D01*
X82857Y-59519D01*
X82857Y-59420D01*
X82857Y-58870D01*
X82819Y-58778D01*
X82748Y-58708D01*
X82657Y-58669D01*
X82557Y-58669D01*
X82462Y-58669D01*
X82462Y-58446D01*
X82498Y-58431D01*
X82568Y-58361D01*
X82607Y-58269D01*
X82607Y-58170D01*
X82607Y-57620D01*
X82569Y-57528D01*
X82498Y-57458D01*
X82407Y-57419D01*
X82307Y-57419D01*
X81957Y-57419D01*
X81865Y-57457D01*
X81807Y-57516D01*
X81748Y-57457D01*
X81656Y-57419D01*
X81544Y-57419D01*
X81482Y-57482D01*
X81482Y-57894D01*
X81489Y-57894D01*
X81489Y-57994D01*
X81482Y-57994D01*
X81482Y-58407D01*
X81544Y-58469D01*
X81656Y-58469D01*
X81748Y-58431D01*
X81807Y-58373D01*
X81865Y-58431D01*
X81902Y-58446D01*
X81902Y-58669D01*
X81794Y-58669D01*
X81732Y-58732D01*
X81732Y-59144D01*
X81739Y-59144D01*
X81739Y-59244D01*
X81732Y-59244D01*
X81732Y-59252D01*
X81632Y-59252D01*
X81632Y-59244D01*
X81632Y-59144D01*
X81632Y-58732D01*
X81569Y-58669D01*
X81457Y-58669D01*
X81365Y-58707D01*
X81295Y-58778D01*
X81257Y-58869D01*
X81257Y-58969D01*
X81257Y-59082D01*
X81319Y-59144D01*
X81632Y-59144D01*
X81632Y-59244D01*
X81319Y-59244D01*
X81262Y-59301D01*
X81096Y-59301D01*
X81096Y-59005D01*
X81058Y-58913D01*
X80988Y-58842D01*
X80896Y-58804D01*
X80796Y-58804D01*
X80732Y-58804D01*
X80732Y-58123D01*
X80895Y-58123D01*
X80987Y-58085D01*
X81007Y-58066D01*
X81007Y-58170D01*
X81007Y-58269D01*
X81045Y-58361D01*
X81115Y-58431D01*
X81207Y-58469D01*
X81319Y-58469D01*
X81382Y-58407D01*
X81382Y-57994D01*
X81374Y-57994D01*
X81374Y-57894D01*
X81382Y-57894D01*
X81382Y-57482D01*
X81319Y-57419D01*
X81207Y-57419D01*
X81115Y-57457D01*
X81096Y-57477D01*
X81096Y-57162D01*
X81115Y-57181D01*
X81207Y-57219D01*
X81319Y-57219D01*
X81382Y-57157D01*
X81382Y-56744D01*
X81069Y-56744D01*
X81060Y-56753D01*
X81058Y-56748D01*
X80988Y-56677D01*
X80896Y-56639D01*
X80796Y-56639D01*
X80009Y-56639D01*
X79917Y-56677D01*
X79847Y-56747D01*
X79809Y-56839D01*
X79809Y-56939D01*
X79809Y-57250D01*
X79712Y-57210D01*
X79679Y-57209D01*
X79679Y-56840D01*
X79641Y-56748D01*
X79571Y-56677D01*
X79544Y-56666D01*
X79601Y-56609D01*
X81034Y-56609D01*
X81069Y-56644D01*
X81382Y-56644D01*
X81382Y-56637D01*
X81482Y-56637D01*
X81482Y-56644D01*
X81489Y-56644D01*
X81489Y-56744D01*
X81482Y-56744D01*
X81482Y-57157D01*
X81544Y-57219D01*
X81656Y-57219D01*
X81748Y-57181D01*
X81807Y-57123D01*
X81865Y-57181D01*
X81957Y-57219D01*
X82056Y-57219D01*
X82406Y-57219D01*
X82417Y-57215D01*
X82441Y-57240D01*
X82678Y-57338D01*
X82934Y-57338D01*
X83171Y-57240D01*
X83352Y-57059D01*
X83450Y-56823D01*
X83450Y-56567D01*
X83353Y-56330D01*
X83172Y-56149D01*
X82935Y-56051D01*
X82679Y-56051D01*
X82442Y-56148D01*
X82417Y-56174D01*
X82407Y-56169D01*
X82307Y-56169D01*
X81957Y-56169D01*
X81907Y-56190D01*
X81849Y-56131D01*
X81758Y-56071D01*
X81651Y-56049D01*
X79485Y-56049D01*
X79378Y-56071D01*
X79348Y-56091D01*
X79287Y-56131D01*
X79057Y-56362D01*
X79035Y-56309D01*
X79001Y-56276D01*
X79001Y-55913D01*
X79197Y-55994D01*
X79416Y-55994D01*
X79618Y-55911D01*
X79773Y-55756D01*
X79807Y-55674D01*
X79840Y-55756D01*
X79995Y-55910D01*
X80197Y-55994D01*
X80416Y-55994D01*
X80618Y-55911D01*
X80773Y-55756D01*
X80856Y-55554D01*
X80857Y-55335D01*
X80773Y-55133D01*
X80690Y-55050D01*
X81622Y-55050D01*
X81729Y-55029D01*
X81729Y-55029D01*
X81820Y-54968D01*
X82163Y-54625D01*
X82163Y-54822D01*
X82261Y-55059D01*
X82441Y-55240D01*
X82678Y-55338D01*
X82934Y-55338D01*
X83171Y-55240D01*
X83352Y-55059D01*
X83450Y-54823D01*
X83450Y-54567D01*
X83353Y-54330D01*
X83172Y-54149D01*
X82935Y-54051D01*
X82857Y-54051D01*
X82857Y-53719D01*
X82857Y-53619D01*
X82818Y-53528D01*
X82748Y-53457D01*
X82656Y-53419D01*
X82544Y-53419D01*
X82482Y-53482D01*
X82482Y-53894D01*
X82794Y-53894D01*
X82857Y-53832D01*
X82857Y-53719D01*
X82857Y-54051D01*
X82850Y-54051D01*
X82794Y-53994D01*
X82482Y-53994D01*
X82482Y-54002D01*
X82382Y-54002D01*
X82382Y-53994D01*
X82374Y-53994D01*
X82374Y-53894D01*
X82382Y-53894D01*
X82382Y-53482D01*
X82319Y-53419D01*
X82294Y-53419D01*
X82265Y-53376D01*
X82016Y-53126D01*
X81925Y-53066D01*
X81818Y-53044D01*
X81346Y-53044D01*
X81346Y-47758D01*
X81335Y-47540D01*
X81272Y-47389D01*
X81177Y-47361D01*
X80862Y-47677D01*
X81177Y-47992D01*
X81272Y-47965D01*
X81346Y-47758D01*
X81346Y-53044D01*
X81061Y-53044D01*
X81061Y-52945D01*
X81061Y-52944D01*
X81061Y-52944D01*
X81061Y-52845D01*
X81061Y-52685D01*
X81061Y-52684D01*
X81061Y-52684D01*
X81061Y-52657D01*
X81041Y-52637D01*
X81023Y-52593D01*
X80990Y-52559D01*
X81023Y-52526D01*
X81049Y-52464D01*
X81061Y-52452D01*
X81061Y-52425D01*
X81061Y-52425D01*
X81061Y-52335D01*
X81061Y-52175D01*
X81061Y-52174D01*
X81061Y-52174D01*
X81061Y-52075D01*
X81061Y-51915D01*
X81061Y-51915D01*
X81061Y-51825D01*
X81061Y-51665D01*
X81061Y-51664D01*
X81061Y-51664D01*
X81061Y-51565D01*
X81061Y-51405D01*
X81061Y-51404D01*
X81061Y-51404D01*
X81061Y-51305D01*
X81061Y-51145D01*
X81061Y-51145D01*
X81061Y-51055D01*
X81061Y-50895D01*
X81061Y-50894D01*
X81061Y-50894D01*
X81061Y-50795D01*
X81061Y-50635D01*
X81023Y-50543D01*
X80953Y-50473D01*
X80923Y-50460D01*
X80938Y-50426D01*
X80938Y-50378D01*
X80979Y-50337D01*
X81040Y-50246D01*
X81040Y-50246D01*
X81043Y-50228D01*
X81061Y-50139D01*
X81061Y-50139D01*
X81061Y-49291D01*
X81043Y-49201D01*
X81040Y-49184D01*
X81040Y-49184D01*
X80979Y-49093D01*
X80979Y-49093D01*
X80677Y-48791D01*
X80677Y-48220D01*
X80709Y-48231D01*
X80928Y-48221D01*
X81079Y-48158D01*
X81106Y-48063D01*
X80791Y-47747D01*
X80785Y-47753D01*
X80715Y-47682D01*
X80720Y-47677D01*
X80715Y-47671D01*
X80785Y-47600D01*
X80791Y-47606D01*
X81106Y-47291D01*
X81079Y-47195D01*
X80957Y-47152D01*
X80979Y-47129D01*
X81003Y-47071D01*
X81028Y-47129D01*
X81098Y-47200D01*
X81190Y-47238D01*
X81289Y-47238D01*
X81958Y-47238D01*
X82050Y-47200D01*
X82121Y-47129D01*
X82159Y-47038D01*
X82159Y-46938D01*
X82159Y-45791D01*
X83775Y-45791D01*
X83775Y-60192D01*
X83775Y-60192D01*
G37*
G54D23*
X83775Y-60192D02*
X81045Y-60192D01*
X81058Y-60180D01*
X81096Y-60088D01*
X81096Y-59989D01*
X81096Y-59861D01*
X81882Y-59861D01*
X81989Y-59840D01*
X81989Y-59840D01*
X82080Y-59779D01*
X82159Y-59700D01*
X82207Y-59719D01*
X82306Y-59719D01*
X82656Y-59719D01*
X82748Y-59681D01*
X82818Y-59611D01*
X82857Y-59519D01*
X82857Y-59420D01*
X82857Y-58870D01*
X82819Y-58778D01*
X82748Y-58708D01*
X82657Y-58669D01*
X82557Y-58669D01*
X82462Y-58669D01*
X82462Y-58446D01*
X82498Y-58431D01*
X82568Y-58361D01*
X82607Y-58269D01*
X82607Y-58170D01*
X82607Y-57620D01*
X82569Y-57528D01*
X82498Y-57458D01*
X82407Y-57419D01*
X82307Y-57419D01*
X81957Y-57419D01*
X81865Y-57457D01*
X81807Y-57516D01*
X81748Y-57457D01*
X81656Y-57419D01*
X81544Y-57419D01*
X81482Y-57482D01*
X81482Y-57894D01*
X81489Y-57894D01*
X81489Y-57994D01*
X81482Y-57994D01*
X81482Y-58407D01*
X81544Y-58469D01*
X81656Y-58469D01*
X81748Y-58431D01*
X81807Y-58373D01*
X81865Y-58431D01*
X81902Y-58446D01*
X81902Y-58669D01*
X81794Y-58669D01*
X81732Y-58732D01*
X81732Y-59144D01*
X81739Y-59144D01*
X81739Y-59244D01*
X81732Y-59244D01*
X81732Y-59252D01*
X81632Y-59252D01*
X81632Y-59244D01*
X81632Y-59144D01*
X81632Y-58732D01*
X81569Y-58669D01*
X81457Y-58669D01*
X81365Y-58707D01*
X81295Y-58778D01*
X81257Y-58869D01*
X81257Y-58969D01*
X81257Y-59082D01*
X81319Y-59144D01*
X81632Y-59144D01*
X81632Y-59244D01*
X81319Y-59244D01*
X81262Y-59301D01*
X81096Y-59301D01*
X81096Y-59005D01*
X81058Y-58913D01*
X80988Y-58842D01*
X80896Y-58804D01*
X80796Y-58804D01*
X80732Y-58804D01*
X80732Y-58123D01*
X80895Y-58123D01*
X80987Y-58085D01*
X81007Y-58066D01*
X81007Y-58170D01*
X81007Y-58269D01*
X81045Y-58361D01*
X81115Y-58431D01*
X81207Y-58469D01*
X81319Y-58469D01*
X81382Y-58407D01*
X81382Y-57994D01*
X81374Y-57994D01*
X81374Y-57894D01*
X81382Y-57894D01*
X81382Y-57482D01*
X81319Y-57419D01*
X81207Y-57419D01*
X81115Y-57457D01*
X81096Y-57477D01*
X81096Y-57162D01*
X81115Y-57181D01*
X81207Y-57219D01*
X81319Y-57219D01*
X81382Y-57157D01*
X81382Y-56744D01*
X81069Y-56744D01*
X81060Y-56753D01*
X81058Y-56748D01*
X80988Y-56677D01*
X80896Y-56639D01*
X80796Y-56639D01*
X80009Y-56639D01*
X79917Y-56677D01*
X79847Y-56747D01*
X79809Y-56839D01*
X79809Y-56939D01*
X79809Y-57250D01*
X79712Y-57210D01*
X79679Y-57209D01*
X79679Y-56840D01*
X79641Y-56748D01*
X79571Y-56677D01*
X79544Y-56666D01*
X79601Y-56609D01*
X81034Y-56609D01*
X81069Y-56644D01*
X81382Y-56644D01*
X81382Y-56637D01*
X81482Y-56637D01*
X81482Y-56644D01*
X81489Y-56644D01*
X81489Y-56744D01*
X81482Y-56744D01*
X81482Y-57157D01*
X81544Y-57219D01*
X81656Y-57219D01*
X81748Y-57181D01*
X81807Y-57123D01*
X81865Y-57181D01*
X81957Y-57219D01*
X82056Y-57219D01*
X82406Y-57219D01*
X82417Y-57215D01*
X82441Y-57240D01*
X82678Y-57338D01*
X82934Y-57338D01*
X83171Y-57240D01*
X83352Y-57059D01*
X83450Y-56823D01*
X83450Y-56567D01*
X83353Y-56330D01*
X83172Y-56149D01*
X82935Y-56051D01*
X82679Y-56051D01*
X82442Y-56148D01*
X82417Y-56174D01*
X82407Y-56169D01*
X82307Y-56169D01*
X81957Y-56169D01*
X81907Y-56190D01*
X81849Y-56131D01*
X81758Y-56071D01*
X81651Y-56049D01*
X79485Y-56049D01*
X79378Y-56071D01*
X79348Y-56091D01*
X79287Y-56131D01*
X79057Y-56362D01*
X79035Y-56309D01*
X79001Y-56276D01*
X79001Y-55913D01*
X79197Y-55994D01*
X79416Y-55994D01*
X79618Y-55911D01*
X79773Y-55756D01*
X79807Y-55674D01*
X79840Y-55756D01*
X79995Y-55910D01*
X80197Y-55994D01*
X80416Y-55994D01*
X80618Y-55911D01*
X80773Y-55756D01*
X80856Y-55554D01*
X80857Y-55335D01*
X80773Y-55133D01*
X80690Y-55050D01*
X81622Y-55050D01*
X81729Y-55029D01*
X81729Y-55029D01*
X81820Y-54968D01*
X82163Y-54625D01*
X82163Y-54822D01*
X82261Y-55059D01*
X82441Y-55240D01*
X82678Y-55338D01*
X82934Y-55338D01*
X83171Y-55240D01*
X83352Y-55059D01*
X83450Y-54823D01*
X83450Y-54567D01*
X83353Y-54330D01*
X83172Y-54149D01*
X82935Y-54051D01*
X82857Y-54051D01*
X82857Y-53719D01*
X82857Y-53619D01*
X82818Y-53528D01*
X82748Y-53457D01*
X82656Y-53419D01*
X82544Y-53419D01*
X82482Y-53482D01*
X82482Y-53894D01*
X82794Y-53894D01*
X82857Y-53832D01*
X82857Y-53719D01*
X82857Y-54051D01*
X82850Y-54051D01*
X82794Y-53994D01*
X82482Y-53994D01*
X82482Y-54002D01*
X82382Y-54002D01*
X82382Y-53994D01*
X82374Y-53994D01*
X82374Y-53894D01*
X82382Y-53894D01*
X82382Y-53482D01*
X82319Y-53419D01*
X82294Y-53419D01*
X82265Y-53376D01*
X82016Y-53126D01*
X81925Y-53066D01*
X81818Y-53044D01*
X81346Y-53044D01*
X81346Y-47758D01*
X81335Y-47540D01*
X81272Y-47389D01*
X81177Y-47361D01*
X80862Y-47677D01*
X81177Y-47992D01*
X81272Y-47965D01*
X81346Y-47758D01*
X81346Y-53044D01*
X81061Y-53044D01*
X81061Y-52945D01*
X81061Y-52944D01*
X81061Y-52944D01*
X81061Y-52845D01*
X81061Y-52685D01*
X81061Y-52684D01*
X81061Y-52684D01*
X81061Y-52657D01*
X81041Y-52637D01*
X81023Y-52593D01*
X80990Y-52559D01*
X81023Y-52526D01*
X81049Y-52464D01*
X81061Y-52452D01*
X81061Y-52425D01*
X81061Y-52425D01*
X81061Y-52335D01*
X81061Y-52175D01*
X81061Y-52174D01*
X81061Y-52174D01*
X81061Y-52075D01*
X81061Y-51915D01*
X81061Y-51915D01*
X81061Y-51825D01*
X81061Y-51665D01*
X81061Y-51664D01*
X81061Y-51664D01*
X81061Y-51565D01*
X81061Y-51405D01*
X81061Y-51404D01*
X81061Y-51404D01*
X81061Y-51305D01*
X81061Y-51145D01*
X81061Y-51145D01*
X81061Y-51055D01*
X81061Y-50895D01*
X81061Y-50894D01*
X81061Y-50894D01*
X81061Y-50795D01*
X81061Y-50635D01*
X81023Y-50543D01*
X80953Y-50473D01*
X80923Y-50460D01*
X80938Y-50426D01*
X80938Y-50378D01*
X80979Y-50337D01*
X81040Y-50246D01*
X81040Y-50246D01*
X81043Y-50228D01*
X81061Y-50139D01*
X81061Y-50139D01*
X81061Y-49291D01*
X81043Y-49201D01*
X81040Y-49184D01*
X81040Y-49184D01*
X80979Y-49093D01*
X80979Y-49093D01*
X80677Y-48791D01*
X80677Y-48220D01*
X80709Y-48231D01*
X80928Y-48221D01*
X81079Y-48158D01*
X81106Y-48063D01*
X80791Y-47747D01*
X80785Y-47753D01*
X80715Y-47682D01*
X80720Y-47677D01*
X80715Y-47671D01*
X80785Y-47600D01*
X80791Y-47606D01*
X81106Y-47291D01*
X81079Y-47195D01*
X80957Y-47152D01*
X80979Y-47129D01*
X81003Y-47071D01*
X81028Y-47129D01*
X81098Y-47200D01*
X81190Y-47238D01*
X81289Y-47238D01*
X81958Y-47238D01*
X82050Y-47200D01*
X82121Y-47129D01*
X82159Y-47038D01*
X82159Y-46938D01*
X82159Y-45791D01*
X83775Y-45791D01*
X83775Y-60192D01*
M02*
