G04 (created by PCBNEW (2013-07-07 BZR 4022)-stable) date 22/04/2014 18:46:14*
%MOIN*%
G04 Gerber Fmt 3.4, Leading zero omitted, Abs format*
%FSLAX34Y34*%
G01*
G70*
G90*
G04 APERTURE LIST*
%ADD10C,0.00590551*%
%ADD11R,0.0709X0.016*%
%ADD12R,0.0787402X0.023622*%
%ADD13R,0.035X0.055*%
%ADD14R,0.055X0.035*%
%ADD15R,0.0787X0.2165*%
%ADD16C,0.0787402*%
%ADD17R,0.06X0.06*%
%ADD18C,0.06*%
%ADD19R,0.0669291X0.137795*%
%ADD20C,0.16*%
%ADD21C,0.024*%
%ADD22C,0.006*%
%ADD23C,0.01*%
G04 APERTURE END LIST*
G54D10*
X72755Y-45511D02*
X84055Y-45511D01*
X72755Y-60472D02*
X72755Y-45511D01*
X84055Y-60472D02*
X72755Y-60472D01*
X84055Y-45511D02*
X84055Y-60472D01*
G54D11*
X80207Y-56554D03*
X80207Y-56814D03*
X80207Y-57064D03*
X80207Y-57324D03*
X80207Y-57584D03*
X80207Y-57834D03*
X80207Y-58094D03*
X80207Y-58344D03*
X80207Y-58604D03*
X80207Y-58864D03*
X77407Y-58874D03*
X77407Y-58604D03*
X77407Y-58344D03*
X77407Y-58094D03*
X77407Y-57834D03*
X77407Y-57584D03*
X77407Y-57324D03*
X77407Y-57064D03*
X77407Y-56814D03*
X77407Y-56554D03*
G54D12*
X80251Y-53944D03*
X80251Y-52944D03*
X80251Y-53444D03*
X80251Y-52444D03*
X80251Y-51944D03*
X80251Y-51444D03*
X80251Y-54444D03*
X80251Y-50944D03*
X78362Y-50944D03*
X78362Y-54444D03*
X78362Y-51444D03*
X78362Y-51944D03*
X78362Y-52444D03*
X78362Y-53444D03*
X78362Y-52944D03*
X78362Y-53944D03*
G54D13*
X78682Y-49944D03*
X79432Y-49944D03*
G54D14*
X76307Y-54569D03*
X76307Y-53819D03*
X76307Y-53069D03*
X76307Y-52319D03*
X81557Y-50569D03*
X81557Y-51319D03*
X81557Y-52819D03*
X81557Y-52069D03*
G54D13*
X75182Y-56444D03*
X75932Y-56444D03*
G54D14*
X81220Y-55136D03*
X81220Y-55886D03*
G54D13*
X81932Y-59194D03*
X81182Y-59194D03*
X73682Y-55444D03*
X74432Y-55444D03*
G54D14*
X77244Y-55176D03*
X77244Y-55926D03*
G54D13*
X73682Y-56444D03*
X74432Y-56444D03*
G54D15*
X82807Y-53844D03*
X82807Y-57544D03*
G54D16*
X82807Y-54694D03*
X82807Y-56694D03*
G54D17*
X74807Y-51444D03*
G54D18*
X74807Y-50444D03*
X74807Y-49444D03*
X74807Y-48444D03*
X74807Y-47444D03*
G54D17*
X73607Y-51444D03*
G54D18*
X73607Y-50444D03*
X73607Y-49444D03*
X73607Y-48444D03*
X73607Y-47444D03*
G54D17*
X77791Y-47677D03*
G54D18*
X78791Y-47677D03*
X79791Y-47677D03*
X80791Y-47677D03*
G54D19*
X80629Y-46299D03*
X77952Y-46299D03*
X78818Y-46299D03*
X79763Y-46299D03*
G54D20*
X73858Y-59370D03*
G54D17*
X78307Y-55444D03*
G54D18*
X79307Y-55444D03*
X80307Y-55444D03*
G54D21*
X78083Y-49599D03*
X77001Y-49266D03*
X77704Y-49664D03*
X79604Y-51127D03*
X78250Y-56401D03*
X78290Y-56704D03*
X79160Y-52016D03*
X79147Y-52327D03*
X79657Y-52667D03*
X76725Y-55959D03*
X80568Y-50352D03*
X78960Y-52917D03*
X78721Y-56519D03*
X79638Y-57579D03*
X80568Y-49378D03*
X77534Y-54777D03*
X75557Y-54835D03*
X77999Y-54841D03*
G54D22*
X77717Y-49966D02*
X78083Y-49599D01*
X74085Y-49966D02*
X77717Y-49966D01*
X73607Y-50444D02*
X74085Y-49966D01*
X76783Y-49049D02*
X77001Y-49266D01*
X74002Y-49049D02*
X76783Y-49049D01*
X73607Y-49444D02*
X74002Y-49049D01*
X76875Y-48835D02*
X77704Y-49664D01*
X73997Y-48835D02*
X76875Y-48835D01*
X73607Y-48444D02*
X73997Y-48835D01*
X77407Y-58344D02*
X77851Y-58344D01*
X74807Y-50835D02*
X74807Y-50444D01*
X73469Y-50835D02*
X74807Y-50835D01*
X73156Y-51148D02*
X73469Y-50835D01*
X73156Y-56859D02*
X73156Y-51148D01*
X75342Y-59045D02*
X73156Y-56859D01*
X77817Y-59045D02*
X75342Y-59045D01*
X77851Y-59010D02*
X77817Y-59045D01*
X77851Y-58344D02*
X77851Y-59010D01*
X79071Y-51660D02*
X79604Y-51127D01*
X77439Y-51660D02*
X79071Y-51660D01*
X76613Y-50835D02*
X77439Y-51660D01*
X74807Y-50835D02*
X76613Y-50835D01*
X79768Y-50964D02*
X79768Y-50944D01*
X79604Y-51127D02*
X79768Y-50964D01*
X80251Y-50944D02*
X79768Y-50944D01*
X78818Y-46299D02*
X78818Y-47078D01*
X78362Y-50944D02*
X78846Y-50944D01*
X78846Y-50788D02*
X78846Y-50944D01*
X78628Y-50571D02*
X78846Y-50788D01*
X78543Y-50571D02*
X78628Y-50571D01*
X78294Y-50321D02*
X78543Y-50571D01*
X78294Y-47603D02*
X78294Y-50321D01*
X78818Y-47078D02*
X78294Y-47603D01*
X77851Y-56799D02*
X78250Y-56401D01*
X77851Y-56814D02*
X77851Y-56799D01*
X77407Y-56814D02*
X77851Y-56814D01*
X77407Y-57064D02*
X77851Y-57064D01*
X77930Y-57064D02*
X78290Y-56704D01*
X77851Y-57064D02*
X77930Y-57064D01*
X79009Y-51780D02*
X78846Y-51944D01*
X79252Y-51780D02*
X79009Y-51780D01*
X79880Y-51153D02*
X79252Y-51780D01*
X80682Y-51153D02*
X79880Y-51153D01*
X80735Y-51100D02*
X80682Y-51153D01*
X80735Y-50778D02*
X80735Y-51100D01*
X80682Y-50725D02*
X80735Y-50778D01*
X79433Y-50725D02*
X80682Y-50725D01*
X78682Y-49973D02*
X79433Y-50725D01*
X78682Y-49944D02*
X78682Y-49973D01*
X78362Y-51944D02*
X78846Y-51944D01*
X78362Y-52444D02*
X77878Y-52444D01*
X76797Y-52444D02*
X77878Y-52444D01*
X76672Y-52319D02*
X76797Y-52444D01*
X76307Y-52319D02*
X76672Y-52319D01*
X76797Y-52944D02*
X77878Y-52944D01*
X76672Y-53069D02*
X76797Y-52944D01*
X76307Y-53069D02*
X76672Y-53069D01*
X78362Y-52944D02*
X77878Y-52944D01*
X78362Y-54444D02*
X77878Y-54444D01*
X76307Y-54569D02*
X76672Y-54569D01*
X76797Y-54444D02*
X76672Y-54569D01*
X77878Y-54444D02*
X76797Y-54444D01*
X77503Y-53819D02*
X77878Y-53444D01*
X76672Y-53819D02*
X77503Y-53819D01*
X76307Y-53819D02*
X76672Y-53819D01*
X78362Y-53444D02*
X77878Y-53444D01*
X81557Y-50569D02*
X81557Y-50835D01*
X78362Y-53944D02*
X78846Y-53944D01*
X79570Y-53220D02*
X78846Y-53944D01*
X80631Y-53220D02*
X79570Y-53220D01*
X80880Y-52971D02*
X80631Y-53220D01*
X80880Y-52749D02*
X80880Y-52971D01*
X81233Y-52396D02*
X80880Y-52749D01*
X81819Y-52396D02*
X81233Y-52396D01*
X81922Y-52293D02*
X81819Y-52396D01*
X81922Y-51100D02*
X81922Y-52293D01*
X81656Y-50835D02*
X81922Y-51100D01*
X81557Y-50835D02*
X81656Y-50835D01*
X76962Y-56406D02*
X76962Y-57324D01*
X77177Y-56191D02*
X76962Y-56406D01*
X77244Y-56191D02*
X77177Y-56191D01*
X77244Y-55926D02*
X77244Y-56191D01*
X77407Y-57324D02*
X76962Y-57324D01*
X75182Y-56444D02*
X75182Y-56079D01*
X73682Y-56444D02*
X73947Y-56444D01*
X73947Y-56322D02*
X74577Y-55692D01*
X73947Y-56444D02*
X73947Y-56322D01*
X74432Y-55547D02*
X74577Y-55692D01*
X74432Y-55444D02*
X74432Y-55547D01*
X74964Y-56079D02*
X75182Y-56079D01*
X74577Y-55692D02*
X74964Y-56079D01*
X74432Y-56444D02*
X74697Y-56444D01*
X80207Y-57324D02*
X79762Y-57324D01*
X74697Y-56544D02*
X74697Y-56444D01*
X74962Y-56810D02*
X74697Y-56544D01*
X76144Y-56810D02*
X74962Y-56810D01*
X76496Y-56457D02*
X76144Y-56810D01*
X76496Y-55886D02*
X76496Y-56457D01*
X76853Y-55530D02*
X76496Y-55886D01*
X77595Y-55530D02*
X76853Y-55530D01*
X77900Y-55835D02*
X77595Y-55530D01*
X78516Y-55835D02*
X77900Y-55835D01*
X79762Y-57081D02*
X78516Y-55835D01*
X79762Y-57324D02*
X79762Y-57081D01*
X81220Y-55136D02*
X81220Y-55004D01*
X81529Y-54694D02*
X81220Y-55004D01*
X82807Y-54694D02*
X81529Y-54694D01*
X82807Y-53844D02*
X82807Y-54694D01*
X81710Y-55494D02*
X81220Y-55004D01*
X81710Y-56167D02*
X81710Y-55494D01*
X81063Y-56814D02*
X81710Y-56167D01*
X80207Y-56814D02*
X81063Y-56814D01*
X80207Y-57064D02*
X80651Y-57064D01*
X82807Y-57064D02*
X80651Y-57064D01*
X82807Y-56694D02*
X82807Y-57064D01*
X82807Y-57064D02*
X82807Y-57544D01*
X82674Y-58717D02*
X82197Y-59194D01*
X82807Y-58717D02*
X82674Y-58717D01*
X82807Y-57544D02*
X82807Y-58717D01*
X81932Y-59194D02*
X82197Y-59194D01*
X73607Y-51444D02*
X73997Y-51444D01*
X79023Y-52153D02*
X79160Y-52016D01*
X77399Y-52153D02*
X79023Y-52153D01*
X76301Y-51054D02*
X77399Y-52153D01*
X74387Y-51054D02*
X76301Y-51054D01*
X73997Y-51444D02*
X74387Y-51054D01*
X77407Y-58874D02*
X76962Y-58874D01*
X74807Y-51444D02*
X74807Y-51835D01*
X80251Y-51444D02*
X79768Y-51444D01*
X74807Y-52653D02*
X74827Y-52673D01*
X74807Y-51835D02*
X74807Y-52653D01*
X75346Y-58874D02*
X76962Y-58874D01*
X73280Y-56808D02*
X75346Y-58874D01*
X73280Y-54221D02*
X73280Y-56808D01*
X74827Y-52673D02*
X73280Y-54221D01*
X79768Y-51707D02*
X79147Y-52327D01*
X79768Y-51444D02*
X79768Y-51707D01*
X78801Y-52673D02*
X74827Y-52673D01*
X79147Y-52327D02*
X78801Y-52673D01*
X78980Y-51310D02*
X78846Y-51444D01*
X78980Y-50748D02*
X78980Y-51310D01*
X78598Y-50366D02*
X78980Y-50748D01*
X78508Y-50366D02*
X78598Y-50366D01*
X78416Y-50273D02*
X78508Y-50366D01*
X78416Y-48631D02*
X78416Y-50273D01*
X79339Y-47708D02*
X78416Y-48631D01*
X79339Y-47503D02*
X79339Y-47708D01*
X79763Y-47078D02*
X79339Y-47503D01*
X79763Y-46299D02*
X79763Y-47078D01*
X78362Y-51444D02*
X78846Y-51444D01*
X80251Y-52444D02*
X79768Y-52444D01*
X79102Y-53223D02*
X79657Y-52667D01*
X77286Y-53223D02*
X79102Y-53223D01*
X77124Y-53384D02*
X77286Y-53223D01*
X75161Y-53384D02*
X77124Y-53384D01*
X73416Y-55129D02*
X75161Y-53384D01*
X73416Y-56774D02*
X73416Y-55129D01*
X75246Y-58604D02*
X73416Y-56774D01*
X77407Y-58604D02*
X75246Y-58604D01*
X79657Y-52555D02*
X79768Y-52444D01*
X79657Y-52667D02*
X79657Y-52555D01*
X80251Y-52444D02*
X80735Y-52444D01*
X79163Y-48305D02*
X79791Y-47677D01*
X79163Y-50270D02*
X79163Y-48305D01*
X79498Y-50605D02*
X79163Y-50270D01*
X80732Y-50605D02*
X79498Y-50605D01*
X80855Y-50728D02*
X80732Y-50605D01*
X80855Y-52324D02*
X80855Y-50728D01*
X80735Y-52444D02*
X80855Y-52324D01*
X76725Y-55844D02*
X76725Y-55959D01*
X76908Y-55661D02*
X76725Y-55844D01*
X77556Y-55661D02*
X76908Y-55661D01*
X77966Y-56071D02*
X77556Y-55661D01*
X78582Y-56071D02*
X77966Y-56071D01*
X78932Y-56420D02*
X78582Y-56071D01*
X78932Y-57172D02*
X78932Y-56420D01*
X79594Y-57834D02*
X78932Y-57172D01*
X80207Y-57834D02*
X79594Y-57834D01*
X80251Y-52944D02*
X80735Y-52944D01*
X80649Y-50352D02*
X80568Y-50352D01*
X80976Y-50679D02*
X80649Y-50352D01*
X80976Y-52382D02*
X80976Y-50679D01*
X80735Y-52623D02*
X80976Y-52382D01*
X80735Y-52944D02*
X80735Y-52623D01*
X80251Y-51944D02*
X79768Y-51944D01*
X79768Y-52110D02*
X79768Y-51944D01*
X78960Y-52917D02*
X79768Y-52110D01*
X80207Y-58864D02*
X79762Y-58864D01*
X78721Y-57824D02*
X79762Y-58864D01*
X78721Y-56519D02*
X78721Y-57824D01*
X79757Y-57579D02*
X79762Y-57584D01*
X79638Y-57579D02*
X79757Y-57579D01*
X80207Y-57584D02*
X79762Y-57584D01*
X80251Y-53444D02*
X80735Y-53444D01*
X80981Y-49378D02*
X80568Y-49378D01*
X82042Y-50439D02*
X80981Y-49378D01*
X82042Y-52369D02*
X82042Y-50439D01*
X81857Y-52554D02*
X82042Y-52369D01*
X81244Y-52554D02*
X81857Y-52554D01*
X81060Y-52739D02*
X81244Y-52554D01*
X81060Y-53120D02*
X81060Y-52739D01*
X80735Y-53444D02*
X81060Y-53120D01*
X81182Y-59194D02*
X80916Y-59194D01*
X79432Y-49944D02*
X79697Y-49944D01*
X81557Y-52069D02*
X81557Y-51319D01*
X81557Y-51319D02*
X81557Y-51054D01*
X75975Y-56079D02*
X75932Y-56079D01*
X76878Y-55176D02*
X75975Y-56079D01*
X77244Y-55176D02*
X76878Y-55176D01*
X75932Y-56444D02*
X75932Y-56079D01*
X77244Y-55176D02*
X77609Y-55176D01*
X80357Y-48110D02*
X80357Y-49861D01*
X80791Y-47677D02*
X80357Y-48110D01*
X79780Y-49861D02*
X79697Y-49944D01*
X80357Y-49861D02*
X79780Y-49861D01*
X77407Y-56554D02*
X77851Y-56554D01*
X77407Y-56554D02*
X77407Y-56554D01*
X77733Y-55051D02*
X77609Y-55176D01*
X77534Y-54852D02*
X77534Y-54777D01*
X77733Y-55051D02*
X77534Y-54852D01*
X78511Y-56365D02*
X78511Y-59194D01*
X78337Y-56191D02*
X78511Y-56365D01*
X78124Y-56191D02*
X78337Y-56191D01*
X77851Y-56464D02*
X78124Y-56191D01*
X77851Y-56554D02*
X77851Y-56464D01*
X74033Y-59194D02*
X78511Y-59194D01*
X73858Y-59370D02*
X74033Y-59194D01*
X78511Y-59194D02*
X80916Y-59194D01*
X80374Y-49861D02*
X80357Y-49861D01*
X81096Y-50583D02*
X80374Y-49861D01*
X81096Y-50689D02*
X81096Y-50583D01*
X81461Y-51054D02*
X81096Y-50689D01*
X81557Y-51054D02*
X81461Y-51054D01*
X80251Y-53944D02*
X79768Y-53944D01*
X80186Y-55886D02*
X81220Y-55886D01*
X79807Y-55507D02*
X80186Y-55886D01*
X79807Y-55392D02*
X79807Y-55507D01*
X79466Y-55051D02*
X79807Y-55392D01*
X77733Y-55051D02*
X79466Y-55051D01*
X79768Y-54749D02*
X79768Y-53944D01*
X79466Y-55051D02*
X79768Y-54749D01*
X73682Y-55444D02*
X73947Y-55444D01*
X74457Y-54835D02*
X75557Y-54835D01*
X73947Y-55345D02*
X74457Y-54835D01*
X73947Y-55444D02*
X73947Y-55345D01*
X80251Y-54444D02*
X80735Y-54444D01*
X81557Y-52819D02*
X81557Y-53085D01*
X77999Y-54841D02*
X77999Y-54834D01*
X76878Y-54835D02*
X75557Y-54835D01*
X77146Y-54567D02*
X76878Y-54835D01*
X77732Y-54567D02*
X77146Y-54567D01*
X77999Y-54834D02*
X77732Y-54567D01*
X78694Y-54834D02*
X77999Y-54834D01*
X79810Y-53718D02*
X78694Y-54834D01*
X80735Y-53718D02*
X79810Y-53718D01*
X80923Y-53718D02*
X80735Y-53718D01*
X81557Y-53085D02*
X80923Y-53718D01*
X80735Y-53718D02*
X80735Y-54444D01*
X80207Y-56554D02*
X80651Y-56554D01*
X81153Y-56554D02*
X80651Y-56554D01*
X81590Y-56117D02*
X81153Y-56554D01*
X81590Y-55676D02*
X81590Y-56117D01*
X81452Y-55537D02*
X81590Y-55676D01*
X81043Y-55537D02*
X81452Y-55537D01*
X80628Y-55123D02*
X81043Y-55537D01*
X80307Y-55444D02*
X80628Y-55123D01*
X80735Y-55016D02*
X80735Y-54444D01*
X80628Y-55123D02*
X80735Y-55016D01*
G54D10*
G36*
X77301Y-55226D02*
X77294Y-55226D01*
X77294Y-55234D01*
X77194Y-55234D01*
X77194Y-55226D01*
X76781Y-55226D01*
X76719Y-55288D01*
X76719Y-55289D01*
X76716Y-55291D01*
X76655Y-55332D01*
X76298Y-55688D01*
X76238Y-55779D01*
X76216Y-55886D01*
X76216Y-55944D01*
X76156Y-55919D01*
X76044Y-55919D01*
X75982Y-55982D01*
X75982Y-56394D01*
X75989Y-56394D01*
X75989Y-56494D01*
X75982Y-56494D01*
X75982Y-56502D01*
X75882Y-56502D01*
X75882Y-56494D01*
X75874Y-56494D01*
X75874Y-56394D01*
X75882Y-56394D01*
X75882Y-55982D01*
X75819Y-55919D01*
X75707Y-55919D01*
X75615Y-55957D01*
X75557Y-56016D01*
X75498Y-55958D01*
X75407Y-55919D01*
X75405Y-55919D01*
X75380Y-55881D01*
X75289Y-55821D01*
X75182Y-55799D01*
X75080Y-55799D01*
X74857Y-55576D01*
X74857Y-55120D01*
X74854Y-55115D01*
X75313Y-55115D01*
X75347Y-55148D01*
X75483Y-55204D01*
X75630Y-55205D01*
X75766Y-55148D01*
X75800Y-55115D01*
X76770Y-55115D01*
X76781Y-55126D01*
X77194Y-55126D01*
X77194Y-55118D01*
X77294Y-55118D01*
X77294Y-55126D01*
X77301Y-55126D01*
X77301Y-55226D01*
X77301Y-55226D01*
G37*
G54D23*
X77301Y-55226D02*
X77294Y-55226D01*
X77294Y-55234D01*
X77194Y-55234D01*
X77194Y-55226D01*
X76781Y-55226D01*
X76719Y-55288D01*
X76719Y-55289D01*
X76716Y-55291D01*
X76655Y-55332D01*
X76298Y-55688D01*
X76238Y-55779D01*
X76216Y-55886D01*
X76216Y-55944D01*
X76156Y-55919D01*
X76044Y-55919D01*
X75982Y-55982D01*
X75982Y-56394D01*
X75989Y-56394D01*
X75989Y-56494D01*
X75982Y-56494D01*
X75982Y-56502D01*
X75882Y-56502D01*
X75882Y-56494D01*
X75874Y-56494D01*
X75874Y-56394D01*
X75882Y-56394D01*
X75882Y-55982D01*
X75819Y-55919D01*
X75707Y-55919D01*
X75615Y-55957D01*
X75557Y-56016D01*
X75498Y-55958D01*
X75407Y-55919D01*
X75405Y-55919D01*
X75380Y-55881D01*
X75289Y-55821D01*
X75182Y-55799D01*
X75080Y-55799D01*
X74857Y-55576D01*
X74857Y-55120D01*
X74854Y-55115D01*
X75313Y-55115D01*
X75347Y-55148D01*
X75483Y-55204D01*
X75630Y-55205D01*
X75766Y-55148D01*
X75800Y-55115D01*
X76770Y-55115D01*
X76781Y-55126D01*
X77194Y-55126D01*
X77194Y-55118D01*
X77294Y-55118D01*
X77294Y-55126D01*
X77301Y-55126D01*
X77301Y-55226D01*
G54D10*
G36*
X78014Y-49229D02*
X78010Y-49229D01*
X77874Y-49285D01*
X77840Y-49319D01*
X77778Y-49294D01*
X77730Y-49294D01*
X77073Y-48637D01*
X76982Y-48576D01*
X76875Y-48555D01*
X75356Y-48555D01*
X75356Y-48554D01*
X75357Y-48335D01*
X75273Y-48133D01*
X75119Y-47978D01*
X75037Y-47944D01*
X75118Y-47911D01*
X75273Y-47756D01*
X75356Y-47554D01*
X75357Y-47335D01*
X75273Y-47133D01*
X75119Y-46978D01*
X74916Y-46894D01*
X74698Y-46894D01*
X74495Y-46978D01*
X74341Y-47132D01*
X74257Y-47335D01*
X74256Y-47553D01*
X74340Y-47756D01*
X74495Y-47910D01*
X74576Y-47944D01*
X74495Y-47978D01*
X74341Y-48132D01*
X74257Y-48335D01*
X74256Y-48553D01*
X74257Y-48555D01*
X74161Y-48555D01*
X74161Y-47526D01*
X74150Y-47308D01*
X74088Y-47157D01*
X73992Y-47129D01*
X73922Y-47200D01*
X73922Y-47058D01*
X73894Y-46963D01*
X73688Y-46890D01*
X73470Y-46901D01*
X73319Y-46963D01*
X73291Y-47058D01*
X73607Y-47374D01*
X73922Y-47058D01*
X73922Y-47200D01*
X73677Y-47444D01*
X73992Y-47760D01*
X74088Y-47732D01*
X74161Y-47526D01*
X74161Y-48555D01*
X74156Y-48555D01*
X74156Y-48554D01*
X74157Y-48335D01*
X74073Y-48133D01*
X73919Y-47978D01*
X73843Y-47947D01*
X73894Y-47926D01*
X73922Y-47830D01*
X73607Y-47515D01*
X73536Y-47586D01*
X73536Y-47444D01*
X73221Y-47129D01*
X73125Y-47157D01*
X73052Y-47363D01*
X73063Y-47581D01*
X73125Y-47732D01*
X73221Y-47760D01*
X73536Y-47444D01*
X73536Y-47586D01*
X73291Y-47830D01*
X73319Y-47926D01*
X73374Y-47945D01*
X73295Y-47978D01*
X73141Y-48132D01*
X73057Y-48335D01*
X73056Y-48553D01*
X73140Y-48756D01*
X73295Y-48910D01*
X73376Y-48944D01*
X73295Y-48978D01*
X73141Y-49132D01*
X73057Y-49335D01*
X73056Y-49553D01*
X73140Y-49756D01*
X73295Y-49910D01*
X73376Y-49944D01*
X73295Y-49978D01*
X73141Y-50132D01*
X73057Y-50335D01*
X73056Y-50553D01*
X73140Y-50756D01*
X73146Y-50762D01*
X73035Y-50873D01*
X73035Y-45791D01*
X77368Y-45791D01*
X77368Y-47037D01*
X77406Y-47129D01*
X77414Y-47138D01*
X77349Y-47165D01*
X77279Y-47235D01*
X77241Y-47327D01*
X77241Y-47426D01*
X77241Y-48026D01*
X77279Y-48118D01*
X77349Y-48188D01*
X77441Y-48227D01*
X77540Y-48227D01*
X78014Y-48227D01*
X78014Y-49229D01*
X78014Y-49229D01*
G37*
G54D23*
X78014Y-49229D02*
X78010Y-49229D01*
X77874Y-49285D01*
X77840Y-49319D01*
X77778Y-49294D01*
X77730Y-49294D01*
X77073Y-48637D01*
X76982Y-48576D01*
X76875Y-48555D01*
X75356Y-48555D01*
X75356Y-48554D01*
X75357Y-48335D01*
X75273Y-48133D01*
X75119Y-47978D01*
X75037Y-47944D01*
X75118Y-47911D01*
X75273Y-47756D01*
X75356Y-47554D01*
X75357Y-47335D01*
X75273Y-47133D01*
X75119Y-46978D01*
X74916Y-46894D01*
X74698Y-46894D01*
X74495Y-46978D01*
X74341Y-47132D01*
X74257Y-47335D01*
X74256Y-47553D01*
X74340Y-47756D01*
X74495Y-47910D01*
X74576Y-47944D01*
X74495Y-47978D01*
X74341Y-48132D01*
X74257Y-48335D01*
X74256Y-48553D01*
X74257Y-48555D01*
X74161Y-48555D01*
X74161Y-47526D01*
X74150Y-47308D01*
X74088Y-47157D01*
X73992Y-47129D01*
X73922Y-47200D01*
X73922Y-47058D01*
X73894Y-46963D01*
X73688Y-46890D01*
X73470Y-46901D01*
X73319Y-46963D01*
X73291Y-47058D01*
X73607Y-47374D01*
X73922Y-47058D01*
X73922Y-47200D01*
X73677Y-47444D01*
X73992Y-47760D01*
X74088Y-47732D01*
X74161Y-47526D01*
X74161Y-48555D01*
X74156Y-48555D01*
X74156Y-48554D01*
X74157Y-48335D01*
X74073Y-48133D01*
X73919Y-47978D01*
X73843Y-47947D01*
X73894Y-47926D01*
X73922Y-47830D01*
X73607Y-47515D01*
X73536Y-47586D01*
X73536Y-47444D01*
X73221Y-47129D01*
X73125Y-47157D01*
X73052Y-47363D01*
X73063Y-47581D01*
X73125Y-47732D01*
X73221Y-47760D01*
X73536Y-47444D01*
X73536Y-47586D01*
X73291Y-47830D01*
X73319Y-47926D01*
X73374Y-47945D01*
X73295Y-47978D01*
X73141Y-48132D01*
X73057Y-48335D01*
X73056Y-48553D01*
X73140Y-48756D01*
X73295Y-48910D01*
X73376Y-48944D01*
X73295Y-48978D01*
X73141Y-49132D01*
X73057Y-49335D01*
X73056Y-49553D01*
X73140Y-49756D01*
X73295Y-49910D01*
X73376Y-49944D01*
X73295Y-49978D01*
X73141Y-50132D01*
X73057Y-50335D01*
X73056Y-50553D01*
X73140Y-50756D01*
X73146Y-50762D01*
X73035Y-50873D01*
X73035Y-45791D01*
X77368Y-45791D01*
X77368Y-47037D01*
X77406Y-47129D01*
X77414Y-47138D01*
X77349Y-47165D01*
X77279Y-47235D01*
X77241Y-47327D01*
X77241Y-47426D01*
X77241Y-48026D01*
X77279Y-48118D01*
X77349Y-48188D01*
X77441Y-48227D01*
X77540Y-48227D01*
X78014Y-48227D01*
X78014Y-49229D01*
G54D10*
G36*
X81278Y-55936D02*
X81270Y-55936D01*
X81270Y-55944D01*
X81170Y-55944D01*
X81170Y-55936D01*
X80757Y-55936D01*
X80695Y-55999D01*
X80695Y-56111D01*
X80733Y-56203D01*
X80803Y-56273D01*
X80806Y-56274D01*
X80715Y-56274D01*
X80703Y-56263D01*
X80611Y-56224D01*
X80512Y-56224D01*
X79803Y-56224D01*
X79711Y-56262D01*
X79640Y-56333D01*
X79602Y-56424D01*
X79602Y-56524D01*
X79602Y-56525D01*
X78857Y-55780D01*
X78857Y-55772D01*
X78995Y-55910D01*
X79197Y-55994D01*
X79416Y-55994D01*
X79618Y-55911D01*
X79773Y-55756D01*
X79807Y-55674D01*
X79840Y-55756D01*
X79995Y-55910D01*
X80197Y-55994D01*
X80416Y-55994D01*
X80618Y-55911D01*
X80725Y-55804D01*
X80757Y-55836D01*
X81170Y-55836D01*
X81170Y-55828D01*
X81270Y-55828D01*
X81270Y-55836D01*
X81278Y-55836D01*
X81278Y-55936D01*
X81278Y-55936D01*
G37*
G54D23*
X81278Y-55936D02*
X81270Y-55936D01*
X81270Y-55944D01*
X81170Y-55944D01*
X81170Y-55936D01*
X80757Y-55936D01*
X80695Y-55999D01*
X80695Y-56111D01*
X80733Y-56203D01*
X80803Y-56273D01*
X80806Y-56274D01*
X80715Y-56274D01*
X80703Y-56263D01*
X80611Y-56224D01*
X80512Y-56224D01*
X79803Y-56224D01*
X79711Y-56262D01*
X79640Y-56333D01*
X79602Y-56424D01*
X79602Y-56524D01*
X79602Y-56525D01*
X78857Y-55780D01*
X78857Y-55772D01*
X78995Y-55910D01*
X79197Y-55994D01*
X79416Y-55994D01*
X79618Y-55911D01*
X79773Y-55756D01*
X79807Y-55674D01*
X79840Y-55756D01*
X79995Y-55910D01*
X80197Y-55994D01*
X80416Y-55994D01*
X80618Y-55911D01*
X80725Y-55804D01*
X80757Y-55836D01*
X81170Y-55836D01*
X81170Y-55828D01*
X81270Y-55828D01*
X81270Y-55836D01*
X81278Y-55836D01*
X81278Y-55936D01*
G54D10*
G36*
X81619Y-51694D02*
X81607Y-51707D01*
X81607Y-52019D01*
X81614Y-52019D01*
X81614Y-52116D01*
X81499Y-52116D01*
X81499Y-52019D01*
X81507Y-52019D01*
X81507Y-51707D01*
X81494Y-51694D01*
X81507Y-51682D01*
X81507Y-51369D01*
X81499Y-51369D01*
X81499Y-51269D01*
X81507Y-51269D01*
X81507Y-51262D01*
X81607Y-51262D01*
X81607Y-51269D01*
X81614Y-51269D01*
X81614Y-51369D01*
X81607Y-51369D01*
X81607Y-51682D01*
X81619Y-51694D01*
X81619Y-51694D01*
G37*
G54D23*
X81619Y-51694D02*
X81607Y-51707D01*
X81607Y-52019D01*
X81614Y-52019D01*
X81614Y-52116D01*
X81499Y-52116D01*
X81499Y-52019D01*
X81507Y-52019D01*
X81507Y-51707D01*
X81494Y-51694D01*
X81507Y-51682D01*
X81507Y-51369D01*
X81499Y-51369D01*
X81499Y-51269D01*
X81507Y-51269D01*
X81507Y-51262D01*
X81607Y-51262D01*
X81607Y-51269D01*
X81614Y-51269D01*
X81614Y-51369D01*
X81607Y-51369D01*
X81607Y-51682D01*
X81619Y-51694D01*
G54D10*
G36*
X83775Y-60192D02*
X81132Y-60192D01*
X81132Y-59657D01*
X81132Y-59244D01*
X80819Y-59244D01*
X80757Y-59307D01*
X80757Y-59420D01*
X80757Y-59519D01*
X80795Y-59611D01*
X80865Y-59681D01*
X80957Y-59719D01*
X81069Y-59719D01*
X81132Y-59657D01*
X81132Y-60192D01*
X74489Y-60192D01*
X74534Y-60117D01*
X73858Y-59440D01*
X73181Y-60117D01*
X73227Y-60192D01*
X73035Y-60192D01*
X73035Y-60001D01*
X73110Y-60046D01*
X73787Y-59370D01*
X73110Y-58693D01*
X73035Y-58738D01*
X73035Y-57134D01*
X74329Y-58428D01*
X74059Y-58318D01*
X73641Y-58321D01*
X73270Y-58475D01*
X73181Y-58622D01*
X73858Y-59299D01*
X73863Y-59293D01*
X73934Y-59364D01*
X73928Y-59370D01*
X74605Y-60046D01*
X74752Y-59958D01*
X74909Y-59571D01*
X74906Y-59153D01*
X74802Y-58900D01*
X75144Y-59243D01*
X75144Y-59243D01*
X75204Y-59283D01*
X75235Y-59303D01*
X75235Y-59303D01*
X75342Y-59325D01*
X75342Y-59325D01*
X77817Y-59325D01*
X77924Y-59303D01*
X77924Y-59303D01*
X78015Y-59243D01*
X78049Y-59208D01*
X78049Y-59208D01*
X78090Y-59148D01*
X78110Y-59117D01*
X78110Y-59117D01*
X78131Y-59010D01*
X78131Y-59010D01*
X78131Y-58344D01*
X78110Y-58237D01*
X78049Y-58146D01*
X78011Y-58121D01*
X78011Y-57965D01*
X78011Y-57964D01*
X78011Y-57964D01*
X78011Y-57865D01*
X78011Y-57705D01*
X78011Y-57705D01*
X78011Y-57615D01*
X78011Y-57455D01*
X78011Y-57454D01*
X78011Y-57454D01*
X78011Y-57355D01*
X78011Y-57328D01*
X78037Y-57323D01*
X78037Y-57323D01*
X78128Y-57262D01*
X78316Y-57074D01*
X78363Y-57074D01*
X78441Y-57042D01*
X78441Y-57824D01*
X78463Y-57931D01*
X78523Y-58022D01*
X79564Y-59062D01*
X79564Y-59062D01*
X79625Y-59103D01*
X79655Y-59123D01*
X79655Y-59123D01*
X79683Y-59129D01*
X79683Y-59129D01*
X79710Y-59156D01*
X79802Y-59194D01*
X79902Y-59194D01*
X80611Y-59194D01*
X80703Y-59156D01*
X80767Y-59092D01*
X80819Y-59144D01*
X81132Y-59144D01*
X81132Y-58732D01*
X81069Y-58669D01*
X80957Y-58669D01*
X80865Y-58707D01*
X80811Y-58761D01*
X80811Y-58735D01*
X80811Y-58734D01*
X80811Y-58734D01*
X80811Y-58635D01*
X80811Y-58475D01*
X80811Y-58474D01*
X80811Y-58474D01*
X80811Y-58375D01*
X80811Y-58215D01*
X80811Y-58215D01*
X80811Y-58125D01*
X80811Y-57965D01*
X80811Y-57964D01*
X80811Y-57964D01*
X80811Y-57865D01*
X80811Y-57705D01*
X80811Y-57705D01*
X80811Y-57615D01*
X80811Y-57455D01*
X80811Y-57454D01*
X80811Y-57454D01*
X80811Y-57355D01*
X80811Y-57344D01*
X82163Y-57344D01*
X82163Y-58672D01*
X82157Y-58669D01*
X82057Y-58669D01*
X81707Y-58669D01*
X81615Y-58707D01*
X81557Y-58766D01*
X81498Y-58707D01*
X81406Y-58669D01*
X81294Y-58669D01*
X81232Y-58732D01*
X81232Y-59144D01*
X81239Y-59144D01*
X81239Y-59244D01*
X81232Y-59244D01*
X81232Y-59657D01*
X81294Y-59719D01*
X81406Y-59719D01*
X81498Y-59681D01*
X81557Y-59623D01*
X81615Y-59681D01*
X81707Y-59719D01*
X81806Y-59719D01*
X82156Y-59719D01*
X82248Y-59681D01*
X82318Y-59611D01*
X82357Y-59519D01*
X82357Y-59420D01*
X82357Y-59418D01*
X82395Y-59392D01*
X82790Y-58997D01*
X82807Y-58997D01*
X82914Y-58976D01*
X83005Y-58915D01*
X83030Y-58877D01*
X83250Y-58877D01*
X83342Y-58839D01*
X83412Y-58769D01*
X83450Y-58677D01*
X83450Y-58577D01*
X83450Y-56823D01*
X83450Y-56823D01*
X83450Y-56567D01*
X83450Y-56566D01*
X83450Y-56412D01*
X83412Y-56320D01*
X83342Y-56250D01*
X83250Y-56212D01*
X83234Y-56212D01*
X83172Y-56149D01*
X82935Y-56051D01*
X82679Y-56051D01*
X82442Y-56148D01*
X82379Y-56212D01*
X82364Y-56212D01*
X82272Y-56250D01*
X82201Y-56320D01*
X82163Y-56412D01*
X82163Y-56511D01*
X82163Y-56566D01*
X82163Y-56566D01*
X82163Y-56784D01*
X81489Y-56784D01*
X81908Y-56365D01*
X81908Y-56365D01*
X81949Y-56304D01*
X81969Y-56274D01*
X81969Y-56274D01*
X81990Y-56167D01*
X81990Y-56167D01*
X81990Y-55494D01*
X81972Y-55405D01*
X81969Y-55387D01*
X81969Y-55387D01*
X81908Y-55296D01*
X81745Y-55133D01*
X81745Y-54974D01*
X82163Y-54974D01*
X82163Y-54976D01*
X82201Y-55068D01*
X82271Y-55139D01*
X82363Y-55177D01*
X82379Y-55177D01*
X82441Y-55240D01*
X82678Y-55338D01*
X82934Y-55338D01*
X83171Y-55240D01*
X83234Y-55177D01*
X83250Y-55177D01*
X83342Y-55139D01*
X83412Y-55069D01*
X83450Y-54977D01*
X83450Y-54877D01*
X83450Y-54823D01*
X83450Y-54823D01*
X83450Y-54567D01*
X83450Y-54566D01*
X83450Y-52712D01*
X83412Y-52620D01*
X83342Y-52550D01*
X83250Y-52512D01*
X83151Y-52512D01*
X82364Y-52512D01*
X82272Y-52550D01*
X82201Y-52620D01*
X82163Y-52712D01*
X82163Y-52811D01*
X82163Y-54414D01*
X81529Y-54414D01*
X81422Y-54436D01*
X81331Y-54496D01*
X81116Y-54711D01*
X81015Y-54711D01*
X81015Y-54444D01*
X81015Y-53980D01*
X81015Y-53980D01*
X81030Y-53976D01*
X81030Y-53976D01*
X81121Y-53916D01*
X81755Y-53282D01*
X81755Y-53282D01*
X81780Y-53244D01*
X81881Y-53244D01*
X81973Y-53206D01*
X82043Y-53136D01*
X82082Y-53044D01*
X82082Y-52945D01*
X82082Y-52726D01*
X82240Y-52567D01*
X82240Y-52567D01*
X82281Y-52506D01*
X82301Y-52476D01*
X82301Y-52476D01*
X82322Y-52369D01*
X82322Y-52369D01*
X82322Y-50439D01*
X82305Y-50349D01*
X82301Y-50331D01*
X82301Y-50331D01*
X82240Y-50241D01*
X82240Y-50241D01*
X81346Y-49346D01*
X81346Y-47758D01*
X81335Y-47540D01*
X81272Y-47389D01*
X81177Y-47361D01*
X80862Y-47677D01*
X81177Y-47992D01*
X81272Y-47965D01*
X81346Y-47758D01*
X81346Y-49346D01*
X81179Y-49180D01*
X81106Y-49131D01*
X81106Y-48063D01*
X80791Y-47747D01*
X80476Y-48063D01*
X80503Y-48158D01*
X80709Y-48231D01*
X80928Y-48221D01*
X81079Y-48158D01*
X81106Y-48063D01*
X81106Y-49131D01*
X81089Y-49119D01*
X80981Y-49098D01*
X80811Y-49098D01*
X80778Y-49064D01*
X80642Y-49008D01*
X80495Y-49008D01*
X80359Y-49064D01*
X80254Y-49168D01*
X80198Y-49304D01*
X80198Y-49451D01*
X80254Y-49587D01*
X80358Y-49691D01*
X80494Y-49748D01*
X80641Y-49748D01*
X80777Y-49692D01*
X80811Y-49658D01*
X80865Y-49658D01*
X81352Y-50144D01*
X81232Y-50144D01*
X81140Y-50182D01*
X81070Y-50253D01*
X81033Y-50340D01*
X80914Y-50221D01*
X80881Y-50143D01*
X80777Y-50039D01*
X80641Y-49982D01*
X80494Y-49982D01*
X80358Y-50038D01*
X80254Y-50142D01*
X80198Y-50278D01*
X80198Y-50325D01*
X79834Y-50325D01*
X79857Y-50269D01*
X79857Y-50170D01*
X79857Y-50057D01*
X79794Y-49994D01*
X79482Y-49994D01*
X79482Y-50002D01*
X79443Y-50002D01*
X79443Y-49887D01*
X79482Y-49887D01*
X79482Y-49894D01*
X79794Y-49894D01*
X79857Y-49832D01*
X79857Y-49719D01*
X79857Y-49619D01*
X79818Y-49528D01*
X79748Y-49457D01*
X79656Y-49419D01*
X79544Y-49419D01*
X79482Y-49482D01*
X79482Y-49419D01*
X79443Y-49419D01*
X79443Y-48421D01*
X79650Y-48214D01*
X79681Y-48227D01*
X79900Y-48227D01*
X80102Y-48143D01*
X80257Y-47989D01*
X80288Y-47913D01*
X80310Y-47965D01*
X80405Y-47992D01*
X80720Y-47677D01*
X80405Y-47361D01*
X80310Y-47389D01*
X80290Y-47444D01*
X80257Y-47366D01*
X80130Y-47238D01*
X80147Y-47238D01*
X80196Y-47218D01*
X80245Y-47238D01*
X80344Y-47238D01*
X80491Y-47238D01*
X80476Y-47291D01*
X80791Y-47606D01*
X81106Y-47291D01*
X81083Y-47209D01*
X81105Y-47200D01*
X81176Y-47129D01*
X81214Y-47038D01*
X81214Y-46938D01*
X81214Y-45791D01*
X83775Y-45791D01*
X83775Y-60192D01*
X83775Y-60192D01*
G37*
G54D23*
X83775Y-60192D02*
X81132Y-60192D01*
X81132Y-59657D01*
X81132Y-59244D01*
X80819Y-59244D01*
X80757Y-59307D01*
X80757Y-59420D01*
X80757Y-59519D01*
X80795Y-59611D01*
X80865Y-59681D01*
X80957Y-59719D01*
X81069Y-59719D01*
X81132Y-59657D01*
X81132Y-60192D01*
X74489Y-60192D01*
X74534Y-60117D01*
X73858Y-59440D01*
X73181Y-60117D01*
X73227Y-60192D01*
X73035Y-60192D01*
X73035Y-60001D01*
X73110Y-60046D01*
X73787Y-59370D01*
X73110Y-58693D01*
X73035Y-58738D01*
X73035Y-57134D01*
X74329Y-58428D01*
X74059Y-58318D01*
X73641Y-58321D01*
X73270Y-58475D01*
X73181Y-58622D01*
X73858Y-59299D01*
X73863Y-59293D01*
X73934Y-59364D01*
X73928Y-59370D01*
X74605Y-60046D01*
X74752Y-59958D01*
X74909Y-59571D01*
X74906Y-59153D01*
X74802Y-58900D01*
X75144Y-59243D01*
X75144Y-59243D01*
X75204Y-59283D01*
X75235Y-59303D01*
X75235Y-59303D01*
X75342Y-59325D01*
X75342Y-59325D01*
X77817Y-59325D01*
X77924Y-59303D01*
X77924Y-59303D01*
X78015Y-59243D01*
X78049Y-59208D01*
X78049Y-59208D01*
X78090Y-59148D01*
X78110Y-59117D01*
X78110Y-59117D01*
X78131Y-59010D01*
X78131Y-59010D01*
X78131Y-58344D01*
X78110Y-58237D01*
X78049Y-58146D01*
X78011Y-58121D01*
X78011Y-57965D01*
X78011Y-57964D01*
X78011Y-57964D01*
X78011Y-57865D01*
X78011Y-57705D01*
X78011Y-57705D01*
X78011Y-57615D01*
X78011Y-57455D01*
X78011Y-57454D01*
X78011Y-57454D01*
X78011Y-57355D01*
X78011Y-57328D01*
X78037Y-57323D01*
X78037Y-57323D01*
X78128Y-57262D01*
X78316Y-57074D01*
X78363Y-57074D01*
X78441Y-57042D01*
X78441Y-57824D01*
X78463Y-57931D01*
X78523Y-58022D01*
X79564Y-59062D01*
X79564Y-59062D01*
X79625Y-59103D01*
X79655Y-59123D01*
X79655Y-59123D01*
X79683Y-59129D01*
X79683Y-59129D01*
X79710Y-59156D01*
X79802Y-59194D01*
X79902Y-59194D01*
X80611Y-59194D01*
X80703Y-59156D01*
X80767Y-59092D01*
X80819Y-59144D01*
X81132Y-59144D01*
X81132Y-58732D01*
X81069Y-58669D01*
X80957Y-58669D01*
X80865Y-58707D01*
X80811Y-58761D01*
X80811Y-58735D01*
X80811Y-58734D01*
X80811Y-58734D01*
X80811Y-58635D01*
X80811Y-58475D01*
X80811Y-58474D01*
X80811Y-58474D01*
X80811Y-58375D01*
X80811Y-58215D01*
X80811Y-58215D01*
X80811Y-58125D01*
X80811Y-57965D01*
X80811Y-57964D01*
X80811Y-57964D01*
X80811Y-57865D01*
X80811Y-57705D01*
X80811Y-57705D01*
X80811Y-57615D01*
X80811Y-57455D01*
X80811Y-57454D01*
X80811Y-57454D01*
X80811Y-57355D01*
X80811Y-57344D01*
X82163Y-57344D01*
X82163Y-58672D01*
X82157Y-58669D01*
X82057Y-58669D01*
X81707Y-58669D01*
X81615Y-58707D01*
X81557Y-58766D01*
X81498Y-58707D01*
X81406Y-58669D01*
X81294Y-58669D01*
X81232Y-58732D01*
X81232Y-59144D01*
X81239Y-59144D01*
X81239Y-59244D01*
X81232Y-59244D01*
X81232Y-59657D01*
X81294Y-59719D01*
X81406Y-59719D01*
X81498Y-59681D01*
X81557Y-59623D01*
X81615Y-59681D01*
X81707Y-59719D01*
X81806Y-59719D01*
X82156Y-59719D01*
X82248Y-59681D01*
X82318Y-59611D01*
X82357Y-59519D01*
X82357Y-59420D01*
X82357Y-59418D01*
X82395Y-59392D01*
X82790Y-58997D01*
X82807Y-58997D01*
X82914Y-58976D01*
X83005Y-58915D01*
X83030Y-58877D01*
X83250Y-58877D01*
X83342Y-58839D01*
X83412Y-58769D01*
X83450Y-58677D01*
X83450Y-58577D01*
X83450Y-56823D01*
X83450Y-56823D01*
X83450Y-56567D01*
X83450Y-56566D01*
X83450Y-56412D01*
X83412Y-56320D01*
X83342Y-56250D01*
X83250Y-56212D01*
X83234Y-56212D01*
X83172Y-56149D01*
X82935Y-56051D01*
X82679Y-56051D01*
X82442Y-56148D01*
X82379Y-56212D01*
X82364Y-56212D01*
X82272Y-56250D01*
X82201Y-56320D01*
X82163Y-56412D01*
X82163Y-56511D01*
X82163Y-56566D01*
X82163Y-56566D01*
X82163Y-56784D01*
X81489Y-56784D01*
X81908Y-56365D01*
X81908Y-56365D01*
X81949Y-56304D01*
X81969Y-56274D01*
X81969Y-56274D01*
X81990Y-56167D01*
X81990Y-56167D01*
X81990Y-55494D01*
X81972Y-55405D01*
X81969Y-55387D01*
X81969Y-55387D01*
X81908Y-55296D01*
X81745Y-55133D01*
X81745Y-54974D01*
X82163Y-54974D01*
X82163Y-54976D01*
X82201Y-55068D01*
X82271Y-55139D01*
X82363Y-55177D01*
X82379Y-55177D01*
X82441Y-55240D01*
X82678Y-55338D01*
X82934Y-55338D01*
X83171Y-55240D01*
X83234Y-55177D01*
X83250Y-55177D01*
X83342Y-55139D01*
X83412Y-55069D01*
X83450Y-54977D01*
X83450Y-54877D01*
X83450Y-54823D01*
X83450Y-54823D01*
X83450Y-54567D01*
X83450Y-54566D01*
X83450Y-52712D01*
X83412Y-52620D01*
X83342Y-52550D01*
X83250Y-52512D01*
X83151Y-52512D01*
X82364Y-52512D01*
X82272Y-52550D01*
X82201Y-52620D01*
X82163Y-52712D01*
X82163Y-52811D01*
X82163Y-54414D01*
X81529Y-54414D01*
X81422Y-54436D01*
X81331Y-54496D01*
X81116Y-54711D01*
X81015Y-54711D01*
X81015Y-54444D01*
X81015Y-53980D01*
X81015Y-53980D01*
X81030Y-53976D01*
X81030Y-53976D01*
X81121Y-53916D01*
X81755Y-53282D01*
X81755Y-53282D01*
X81780Y-53244D01*
X81881Y-53244D01*
X81973Y-53206D01*
X82043Y-53136D01*
X82082Y-53044D01*
X82082Y-52945D01*
X82082Y-52726D01*
X82240Y-52567D01*
X82240Y-52567D01*
X82281Y-52506D01*
X82301Y-52476D01*
X82301Y-52476D01*
X82322Y-52369D01*
X82322Y-52369D01*
X82322Y-50439D01*
X82305Y-50349D01*
X82301Y-50331D01*
X82301Y-50331D01*
X82240Y-50241D01*
X82240Y-50241D01*
X81346Y-49346D01*
X81346Y-47758D01*
X81335Y-47540D01*
X81272Y-47389D01*
X81177Y-47361D01*
X80862Y-47677D01*
X81177Y-47992D01*
X81272Y-47965D01*
X81346Y-47758D01*
X81346Y-49346D01*
X81179Y-49180D01*
X81106Y-49131D01*
X81106Y-48063D01*
X80791Y-47747D01*
X80476Y-48063D01*
X80503Y-48158D01*
X80709Y-48231D01*
X80928Y-48221D01*
X81079Y-48158D01*
X81106Y-48063D01*
X81106Y-49131D01*
X81089Y-49119D01*
X80981Y-49098D01*
X80811Y-49098D01*
X80778Y-49064D01*
X80642Y-49008D01*
X80495Y-49008D01*
X80359Y-49064D01*
X80254Y-49168D01*
X80198Y-49304D01*
X80198Y-49451D01*
X80254Y-49587D01*
X80358Y-49691D01*
X80494Y-49748D01*
X80641Y-49748D01*
X80777Y-49692D01*
X80811Y-49658D01*
X80865Y-49658D01*
X81352Y-50144D01*
X81232Y-50144D01*
X81140Y-50182D01*
X81070Y-50253D01*
X81033Y-50340D01*
X80914Y-50221D01*
X80881Y-50143D01*
X80777Y-50039D01*
X80641Y-49982D01*
X80494Y-49982D01*
X80358Y-50038D01*
X80254Y-50142D01*
X80198Y-50278D01*
X80198Y-50325D01*
X79834Y-50325D01*
X79857Y-50269D01*
X79857Y-50170D01*
X79857Y-50057D01*
X79794Y-49994D01*
X79482Y-49994D01*
X79482Y-50002D01*
X79443Y-50002D01*
X79443Y-49887D01*
X79482Y-49887D01*
X79482Y-49894D01*
X79794Y-49894D01*
X79857Y-49832D01*
X79857Y-49719D01*
X79857Y-49619D01*
X79818Y-49528D01*
X79748Y-49457D01*
X79656Y-49419D01*
X79544Y-49419D01*
X79482Y-49482D01*
X79482Y-49419D01*
X79443Y-49419D01*
X79443Y-48421D01*
X79650Y-48214D01*
X79681Y-48227D01*
X79900Y-48227D01*
X80102Y-48143D01*
X80257Y-47989D01*
X80288Y-47913D01*
X80310Y-47965D01*
X80405Y-47992D01*
X80720Y-47677D01*
X80405Y-47361D01*
X80310Y-47389D01*
X80290Y-47444D01*
X80257Y-47366D01*
X80130Y-47238D01*
X80147Y-47238D01*
X80196Y-47218D01*
X80245Y-47238D01*
X80344Y-47238D01*
X80491Y-47238D01*
X80476Y-47291D01*
X80791Y-47606D01*
X81106Y-47291D01*
X81083Y-47209D01*
X81105Y-47200D01*
X81176Y-47129D01*
X81214Y-47038D01*
X81214Y-46938D01*
X81214Y-45791D01*
X83775Y-45791D01*
X83775Y-60192D01*
M02*
