M48
;DRILL file {Pcbnew (2013-07-07 BZR 4022)-stable} date 21/04/2014 00:22:52
;FORMAT={-:-/ absolute / inch / decimal}
FMAT,2
INCH,TZ
T1C0.012
T2C0.039
T3C0.040
T4C0.120
%
G90
G05
M72
T1
X7.5557Y-5.4835
X7.6725Y-5.5959
X7.7001Y-4.9266
X7.7535Y-5.4778
X7.7704Y-4.9664
X7.7999Y-5.4841
X7.8084Y-4.9599
X7.825Y-5.6401
X7.8291Y-5.6704
X7.8722Y-5.6519
X7.8961Y-5.2917
X7.9148Y-5.2328
X7.916Y-5.2016
X7.9605Y-5.1127
X7.9639Y-5.758
X7.9657Y-5.2668
X8.0568Y-5.0353
X8.0568Y-4.9378
T2
X8.2807Y-5.4695
X8.2807Y-5.6695
T3
X7.3607Y-4.7445
X7.3607Y-4.8445
X7.3607Y-4.9445
X7.3607Y-5.0445
X7.3607Y-5.1445
X7.4807Y-4.7445
X7.4807Y-4.8445
X7.4807Y-4.9445
X7.4807Y-5.0445
X7.4807Y-5.1445
X7.7791Y-4.7677
X7.8307Y-5.5445
X7.8791Y-4.7677
X7.9307Y-5.5445
X7.9791Y-4.7677
X8.0307Y-5.5445
X8.0791Y-4.7677
T4
X7.3858Y-5.937
T0
M30
